<svg  viewBox="0 0 950 504" fill="none" xmlns="http://www.w3.org/2000/svg">
<path d="M6 6H335.951" stroke="#E3D238" stroke-width="12" stroke-linecap="round"/>
<path d="M678.79 6H943.224" stroke="#9F89CE" stroke-width="12" stroke-linecap="round"/>
<path d="M369.461 6H633.895" stroke="#819EE8" stroke-width="12" stroke-linecap="round"/>
<path d="M8 317H272.434" stroke="#819EE8" stroke-width="12" stroke-linecap="round"/>
<path d="M72.0267 62.7103H471.173" stroke="#93BCBE" stroke-width="12" stroke-linecap="round"/>
<path d="M116 450H515.146" stroke="#93BCBE" stroke-width="12" stroke-linecap="round"/>
<path d="M526.055 62.7103L703.176 62.7103" stroke="#ECEBEB" stroke-width="12" stroke-linecap="round"/>
<path d="M12.2311 108.595H239.072" stroke="#E58FA4" stroke-width="12" stroke-linecap="round"/>
<path d="M638 363H864.841" stroke="#E58FA4" stroke-width="12" stroke-linecap="round"/>
<path d="M631.787 108.595H864.67" stroke="#ECEBEB" stroke-width="12" stroke-linecap="round"/>
<path d="M331.871 108.595H596.305" stroke="#9F89CE" stroke-width="12" stroke-linecap="round"/>
<path d="M106.703 160.15H458.224" stroke="#96D67F" stroke-width="12" stroke-linecap="round"/>
<path d="M697.698 160.15L919.595 160.15" stroke="#E3D238" stroke-width="12" stroke-linecap="round"/>
<path d="M506.558 160.15L662.545 160.15" stroke="#71A2EC" stroke-width="12" stroke-linecap="round"/>
<path d="M12.2311 219.438H239.072" stroke="#96D67F" stroke-width="12" stroke-linecap="round"/>
<path d="M631.787 219.438H864.67" stroke="#ECEBEB" stroke-width="12" stroke-linecap="round"/>
<path d="M331.871 219.438H596.305" stroke="#9F89CE" stroke-width="12" stroke-linecap="round"/>
<path d="M106.703 270.993H458.224" stroke="#ECEBEB" stroke-width="12" stroke-linecap="round"/>
<path d="M697.698 270.993L919.595 270.993" stroke="#E58FA4" stroke-width="12" stroke-linecap="round"/>
<path d="M506.558 270.993L662.545 270.993" stroke="#71A2EC" stroke-width="12" stroke-linecap="round"/>
<path d="M357 317L534.121 317" stroke="#ECEBEB" stroke-width="12" stroke-linecap="round"/>
<path d="M332.64 362.885H597.074" stroke="#9F89CE" stroke-width="12" stroke-linecap="round"/>
<path d="M596 317H860.434" stroke="#9F89CE" stroke-width="12" stroke-linecap="round"/>
<path d="M135 405L356.898 405" stroke="#E3D238" stroke-width="12" stroke-linecap="round"/>
<path d="M27 363H253.841" stroke="#96D67F" stroke-width="12" stroke-linecap="round"/>
<path d="M83 498H315.883" stroke="#ECEBEB" stroke-width="12" stroke-linecap="round"/>
<path d="M568 450H919.521" stroke="#ECEBEB" stroke-width="12" stroke-linecap="round"/>
<path d="M424 405L579.988 405" stroke="#71A2EC" stroke-width="12" stroke-linecap="round"/>
</svg>
