<link href="/assets/svg/projects-bg/projects-bg.css" rel="stylesheet" />
<svg class="background" viewBox="0 0 1920 3674" fill="none" xmlns="http://www.w3.org/2000/svg">
<g filter="url(#filter0_f_0_1)">
<path fill-rule="evenodd" clip-rule="evenodd" d="M2209.32 791.441C2207.44 796.037 2205.15 800.548 2202.42 804.974C2199.7 809.4 2196.55 813.655 2192.98 817.741C2189.4 821.826 2185.49 825.826 2181.23 829.741C2176.98 833.486 2172.38 837.146 2167.45 840.721C2162.34 844.125 2156.98 847.444 2151.36 850.679C2145.74 853.913 2139.87 856.892 2133.75 859.615C2127.45 862.509 2120.98 865.233 2114.34 867.786C2107.53 870.169 2100.47 872.467 2093.15 874.68C2086 876.723 2078.6 878.595 2070.94 880.297C2063.28 882 2055.45 883.446 2047.45 884.638C2039.45 885.83 2031.28 886.851 2022.94 887.702C2014.6 888.553 2006.09 889.149 1997.41 889.489C1988.73 889.83 1980.05 890 1971.37 890C1962.52 889.83 1953.59 889.489 1944.57 888.979C1935.55 888.298 1926.53 887.447 1917.5 886.425C1908.31 885.234 1899.21 883.872 1890.19 882.34C1881 880.638 1871.81 878.765 1862.61 876.723C1853.59 874.51 1844.49 872.127 1835.3 869.573C1826.11 866.85 1817 863.956 1807.98 860.892C1798.96 857.658 1790.02 854.253 1781.17 850.679C1772.32 846.934 1763.56 843.019 1754.88 838.933C1746.2 834.678 1737.6 830.167 1729.09 825.401C1720.58 820.805 1712.24 815.868 1704.07 810.591C1695.9 805.314 1687.9 799.782 1680.07 793.995C1672.24 788.207 1664.59 782.164 1657.1 775.866C1649.61 769.568 1642.29 763.014 1635.14 756.205C1628.16 749.396 1621.35 742.247 1614.72 734.757C1608.25 727.438 1601.95 719.778 1595.82 711.777C1589.7 703.947 1583.91 695.776 1578.46 687.265C1573.02 678.924 1567.83 670.243 1562.89 661.221C1557.95 652.37 1553.36 643.348 1549.1 634.156C1544.85 624.964 1540.93 615.602 1537.36 606.069C1533.79 596.537 1530.47 586.919 1527.4 577.217C1524.51 567.514 1521.96 557.726 1519.74 547.853C1517.53 537.98 1515.66 528.108 1514.13 518.235C1512.77 508.362 1511.74 498.489 1511.06 488.616C1510.21 478.743 1509.87 468.955 1510.04 459.253C1510.21 449.55 1510.72 439.847 1511.57 430.145C1512.6 420.612 1513.96 411.25 1515.66 402.058C1517.53 392.696 1519.74 383.589 1522.3 374.737C1525.02 365.716 1528.17 356.949 1531.74 348.438C1535.49 339.927 1539.57 331.671 1544 323.671C1548.59 315.67 1553.61 307.925 1559.06 300.435C1564.68 292.946 1570.63 285.711 1576.93 278.732C1583.4 271.923 1590.21 265.284 1597.36 258.816C1604.67 252.518 1612.25 246.39 1620.08 240.432C1628.08 234.644 1636.42 229.112 1645.1 223.835C1653.61 218.388 1662.46 213.196 1671.65 208.26C1680.84 203.494 1690.29 198.898 1699.99 194.472C1709.69 190.046 1719.65 185.876 1729.86 181.961C1740.07 178.046 1750.37 174.301 1760.75 170.726C1771.3 167.322 1781.94 164.087 1792.66 161.023C1803.38 157.959 1814.28 155.066 1825.34 152.342C1836.23 149.789 1847.3 147.32 1858.53 144.937C1869.59 142.724 1880.66 140.682 1891.72 138.809C1902.95 136.937 1914.1 135.235 1925.16 133.703C1936.4 132.171 1947.55 130.809 1958.61 129.617C1969.5 128.426 1980.39 127.404 1991.29 126.553C2002.18 125.872 2012.9 125.277 2023.46 124.766C2034.01 124.255 2044.48 124 2054.86 124C2065.07 124 2075.11 124.17 2084.98 124.511C2094.85 124.851 2104.39 125.362 2113.58 126.043C2122.94 126.894 2132.04 127.915 2140.89 129.107C2149.74 130.298 2158.17 131.66 2166.17 133.192C2174.34 134.894 2182.17 136.767 2189.66 138.809C2196.98 140.852 2203.95 143.15 2210.59 145.703C2217.23 148.427 2223.44 151.236 2229.23 154.129C2234.85 157.193 2240.04 160.513 2244.8 164.087C2249.57 167.662 2253.82 171.492 2257.57 175.577C2261.31 179.663 2264.55 184.003 2267.27 188.599C2269.82 193.025 2271.78 197.876 2273.14 203.153C2274.67 208.26 2275.61 213.622 2275.95 219.239C2276.12 224.857 2275.86 230.729 2275.18 236.857C2274.5 242.985 2273.4 249.284 2271.86 255.752C2270.33 262.22 2268.38 268.944 2265.99 275.923C2263.78 282.732 2261.23 289.796 2258.33 297.116C2255.61 304.265 2252.63 311.585 2249.4 319.075C2246.16 326.564 2242.76 334.139 2239.19 341.799C2235.78 349.459 2232.21 357.204 2228.46 365.035C2224.89 372.865 2221.31 380.78 2217.74 388.781C2214.17 396.781 2210.68 404.782 2207.27 412.782C2203.87 420.782 2200.63 428.783 2197.57 436.783C2194.34 444.954 2191.44 453.04 2188.89 461.04C2186.17 469.04 2183.87 476.956 2182 484.786C2179.96 492.616 2178.25 500.446 2176.89 508.277C2175.7 516.107 2174.85 523.767 2174.34 531.257C2173.83 538.917 2173.74 546.406 2174.08 553.726C2174.25 561.216 2174.76 568.535 2175.62 575.685C2176.47 583.004 2177.57 590.154 2178.93 597.133C2180.13 604.112 2181.57 611.091 2183.27 618.07C2184.81 624.879 2186.51 631.603 2188.38 638.241C2190.08 644.88 2191.95 651.348 2194 657.647C2195.87 664.115 2197.74 670.498 2199.61 676.797C2201.49 682.925 2203.19 689.053 2204.72 695.181C2206.42 701.138 2208.04 707.011 2209.57 712.799C2210.93 718.586 2212.12 724.289 2213.14 729.906C2214 735.523 2214.68 740.97 2215.19 746.247C2215.7 751.694 2215.78 756.971 2215.44 762.078C2215.27 767.185 2214.68 772.206 2213.66 777.143C2212.63 781.909 2211.19 786.675 2209.32 791.441Z" fill="#A4DB91"/>
<path fill-rule="evenodd" clip-rule="evenodd" d="M2209.32 791.441C2207.44 796.037 2205.15 800.548 2202.42 804.974C2199.7 809.4 2196.55 813.655 2192.98 817.741C2189.4 821.826 2185.49 825.826 2181.23 829.741C2176.98 833.486 2172.38 837.146 2167.45 840.721C2162.34 844.125 2156.98 847.444 2151.36 850.679C2145.74 853.913 2139.87 856.892 2133.75 859.615C2127.45 862.509 2120.98 865.233 2114.34 867.786C2107.53 870.169 2100.47 872.467 2093.15 874.68C2086 876.723 2078.6 878.595 2070.94 880.297C2063.28 882 2055.45 883.446 2047.45 884.638C2039.45 885.83 2031.28 886.851 2022.94 887.702C2014.6 888.553 2006.09 889.149 1997.41 889.489C1988.73 889.83 1980.05 890 1971.37 890C1962.52 889.83 1953.59 889.489 1944.57 888.979C1935.55 888.298 1926.53 887.447 1917.5 886.425C1908.31 885.234 1899.21 883.872 1890.19 882.34C1881 880.638 1871.81 878.765 1862.61 876.723C1853.59 874.51 1844.49 872.127 1835.3 869.573C1826.11 866.85 1817 863.956 1807.98 860.892C1798.96 857.658 1790.02 854.253 1781.17 850.679C1772.32 846.934 1763.56 843.019 1754.88 838.933C1746.2 834.678 1737.6 830.167 1729.09 825.401C1720.58 820.805 1712.24 815.868 1704.07 810.591C1695.9 805.314 1687.9 799.782 1680.07 793.995C1672.24 788.207 1664.59 782.164 1657.1 775.866C1649.61 769.568 1642.29 763.014 1635.14 756.205C1628.16 749.396 1621.35 742.247 1614.72 734.757C1608.25 727.438 1601.95 719.778 1595.82 711.777C1589.7 703.947 1583.91 695.776 1578.46 687.265C1573.02 678.924 1567.83 670.243 1562.89 661.221C1557.95 652.37 1553.36 643.348 1549.1 634.156C1544.85 624.964 1540.93 615.602 1537.36 606.069C1533.79 596.537 1530.47 586.919 1527.4 577.217C1524.51 567.514 1521.96 557.726 1519.74 547.853C1517.53 537.98 1515.66 528.108 1514.13 518.235C1512.77 508.362 1511.74 498.489 1511.06 488.616C1510.21 478.743 1509.87 468.955 1510.04 459.253C1510.21 449.55 1510.72 439.847 1511.57 430.145C1512.6 420.612 1513.96 411.25 1515.66 402.058C1517.53 392.696 1519.74 383.589 1522.3 374.737C1525.02 365.716 1528.17 356.949 1531.74 348.438C1535.49 339.927 1539.57 331.671 1544 323.671C1548.59 315.67 1553.61 307.925 1559.06 300.435C1564.68 292.946 1570.63 285.711 1576.93 278.732C1583.4 271.923 1590.21 265.284 1597.36 258.816C1604.67 252.518 1612.25 246.39 1620.08 240.432C1628.08 234.644 1636.42 229.112 1645.1 223.835C1653.61 218.388 1662.46 213.196 1671.65 208.26C1680.84 203.494 1690.29 198.898 1699.99 194.472C1709.69 190.046 1719.65 185.876 1729.86 181.961C1740.07 178.046 1750.37 174.301 1760.75 170.726C1771.3 167.322 1781.94 164.087 1792.66 161.023C1803.38 157.959 1814.28 155.066 1825.34 152.342C1836.23 149.789 1847.3 147.32 1858.53 144.937C1869.59 142.724 1880.66 140.682 1891.72 138.809C1902.95 136.937 1914.1 135.235 1925.16 133.703C1936.4 132.171 1947.55 130.809 1958.61 129.617C1969.5 128.426 1980.39 127.404 1991.29 126.553C2002.18 125.872 2012.9 125.277 2023.46 124.766C2034.01 124.255 2044.48 124 2054.86 124C2065.07 124 2075.11 124.17 2084.98 124.511C2094.85 124.851 2104.39 125.362 2113.58 126.043C2122.94 126.894 2132.04 127.915 2140.89 129.107C2149.74 130.298 2158.17 131.66 2166.17 133.192C2174.34 134.894 2182.17 136.767 2189.66 138.809C2196.98 140.852 2203.95 143.15 2210.59 145.703C2217.23 148.427 2223.44 151.236 2229.23 154.129C2234.85 157.193 2240.04 160.513 2244.8 164.087C2249.57 167.662 2253.82 171.492 2257.57 175.577C2261.31 179.663 2264.55 184.003 2267.27 188.599C2269.82 193.025 2271.78 197.876 2273.14 203.153C2274.67 208.26 2275.61 213.622 2275.95 219.239C2276.12 224.857 2275.86 230.729 2275.18 236.857C2274.5 242.985 2273.4 249.284 2271.86 255.752C2270.33 262.22 2268.38 268.944 2265.99 275.923C2263.78 282.732 2261.23 289.796 2258.33 297.116C2255.61 304.265 2252.63 311.585 2249.4 319.075C2246.16 326.564 2242.76 334.139 2239.19 341.799C2235.78 349.459 2232.21 357.204 2228.46 365.035C2224.89 372.865 2221.31 380.78 2217.74 388.781C2214.17 396.781 2210.68 404.782 2207.27 412.782C2203.87 420.782 2200.63 428.783 2197.57 436.783C2194.34 444.954 2191.44 453.04 2188.89 461.04C2186.17 469.04 2183.87 476.956 2182 484.786C2179.96 492.616 2178.25 500.446 2176.89 508.277C2175.7 516.107 2174.85 523.767 2174.34 531.257C2173.83 538.917 2173.74 546.406 2174.08 553.726C2174.25 561.216 2174.76 568.535 2175.62 575.685C2176.47 583.004 2177.57 590.154 2178.93 597.133C2180.13 604.112 2181.57 611.091 2183.27 618.07C2184.81 624.879 2186.51 631.603 2188.38 638.241C2190.08 644.88 2191.95 651.348 2194 657.647C2195.87 664.115 2197.74 670.498 2199.61 676.797C2201.49 682.925 2203.19 689.053 2204.72 695.181C2206.42 701.138 2208.04 707.011 2209.57 712.799C2210.93 718.586 2212.12 724.289 2213.14 729.906C2214 735.523 2214.68 740.97 2215.19 746.247C2215.7 751.694 2215.78 756.971 2215.44 762.078C2215.27 767.185 2214.68 772.206 2213.66 777.143C2212.63 781.909 2211.19 786.675 2209.32 791.441Z" stroke="black"/>
</g>
<g filter="url(#filter1_f_0_1)">
<path fill-rule="evenodd" clip-rule="evenodd" d="M700.934 2903.32C695.973 2917.7 691.633 2932.34 687.913 2947.22C684.193 2962.1 680.72 2976.85 677.496 2991.49C674.024 3005.87 670.676 3019.89 667.451 3033.53C663.979 3047.17 660.011 3060.06 655.547 3072.22C651.082 3084.62 645.874 3095.9 639.922 3106.07C633.721 3116.24 626.529 3125.17 618.344 3132.86C609.912 3140.54 600.363 3146.87 589.698 3151.83C579.282 3156.79 567.873 3160.39 555.472 3162.62C543.319 3165.1 530.671 3166.21 517.526 3165.97C504.133 3165.72 490.492 3164.23 476.603 3161.5C462.714 3159.02 448.701 3155.18 434.564 3149.97C420.675 3144.76 407.035 3138.44 393.642 3131C380.249 3123.56 367.104 3115.12 354.207 3105.7C341.558 3096.52 329.281 3086.73 317.377 3076.31C305.224 3065.89 293.567 3055.48 282.406 3045.06C270.998 3034.64 259.961 3024.6 249.296 3014.92C238.632 3005.25 228.339 2996.45 218.418 2988.51C208.25 2980.57 198.577 2973.88 189.4 2968.42C179.976 2962.97 170.799 2959 161.871 2956.52C152.694 2954.28 143.641 2953.29 134.713 2953.54C125.784 2954.04 116.732 2955.65 107.555 2958.38C98.1306 2961.35 88.2099 2965.32 77.7932 2970.28C67.6246 2974.99 56.7119 2980.7 45.0551 2987.4C33.3983 2994.09 20.8735 3001.41 7.48068 3009.34C-5.91217 3017.28 -20.2971 3025.71 -35.6741 3034.64C-51.0511 3043.57 -67.0482 3052.38 -83.6652 3061.06C-100.282 3069.98 -116.899 3078.42 -133.516 3086.35C-150.134 3094.29 -166.255 3101.23 -181.88 3107.19C-197.505 3112.89 -212.014 3117.23 -225.406 3120.21C-239.047 3123.18 -250.952 3124.05 -261.121 3122.81C-271.289 3121.82 -279.474 3118.35 -285.674 3112.39C-291.627 3106.44 -295.843 3098.26 -298.323 3087.84C-300.555 3077.67 -301.671 3065.77 -301.671 3052.13C-301.423 3038.49 -300.431 3023.85 -298.695 3008.23C-297.207 2992.36 -295.471 2976.11 -293.487 2959.49C-291.751 2942.63 -290.387 2926.01 -289.395 2909.64C-288.402 2893.03 -288.527 2877.03 -289.767 2861.65C-290.759 2846.52 -292.867 2832.14 -296.091 2818.5C-299.067 2804.86 -302.539 2792.08 -306.508 2780.18C-310.476 2768.27 -314.072 2757.11 -317.296 2746.7C-320.769 2736.28 -323.497 2726.48 -325.481 2717.31C-327.217 2708.38 -327.465 2699.95 -326.225 2692.01C-325.233 2684.07 -322.009 2676.63 -316.552 2669.69C-311.344 2662.74 -303.904 2656.17 -294.231 2649.97C-284.31 2643.77 -272.901 2637.82 -260.005 2632.11C-247.108 2626.41 -233.591 2620.7 -219.454 2615C-205.069 2609.05 -190.808 2602.97 -176.671 2596.77C-162.534 2590.57 -149.265 2583.87 -136.865 2576.68C-124.464 2569.49 -113.799 2561.68 -104.871 2553.24C-95.694 2544.56 -88.8736 2535.26 -84.4093 2525.34C-79.945 2515.17 -77.3408 2504.51 -76.5968 2493.35C-75.6047 2482.19 -75.9767 2470.78 -77.7129 2459.12C-79.449 2447.47 -81.6811 2435.81 -84.4093 2424.15C-87.1375 2412.74 -89.8656 2401.71 -92.5938 2391.04C-95.322 2380.13 -97.3061 2369.96 -98.5462 2360.54C-100.034 2351.36 -100.158 2343.05 -98.9182 2335.61C-97.6781 2328.17 -95.074 2321.47 -91.1057 2315.52C-87.3855 2309.82 -82.5492 2304.48 -76.5968 2299.52C-70.6444 2294.56 -64.072 2289.6 -56.8795 2284.64C-49.439 2279.68 -41.5025 2274.35 -33.0699 2268.65C-24.6374 2263.19 -15.9568 2256.87 -7.02826 2249.67C1.65231 2242.73 10.4568 2234.67 19.3854 2225.49C28.066 2216.32 36.6226 2206.02 45.0551 2194.61C53.4877 2183.45 61.9202 2171.92 70.3528 2160.02C78.5373 2148.11 86.7218 2136.33 94.9063 2124.67C103.091 2113.26 111.275 2102.6 119.46 2092.68C127.396 2082.76 135.457 2074.33 143.641 2067.38C151.826 2060.44 160.135 2055.48 168.567 2052.5C177 2049.77 185.432 2049.28 193.865 2051.01C202.297 2052.5 210.978 2055.97 219.906 2061.43C228.587 2066.64 237.516 2073.21 246.692 2081.15C255.621 2088.84 264.673 2097.39 273.85 2106.82C283.275 2115.99 292.699 2125.42 302.124 2135.09C311.796 2144.51 321.469 2153.57 331.142 2162.25C341.062 2171.18 351.107 2179.11 361.276 2186.06C371.196 2193.25 381.117 2199.82 391.038 2205.77C400.71 2211.73 410.135 2217.31 419.311 2222.52C428.24 2227.72 436.672 2233.06 444.609 2238.51C452.546 2243.72 459.49 2249.3 465.442 2255.25C471.643 2261.45 476.603 2268.15 480.323 2275.34C484.292 2282.78 486.772 2291.22 487.764 2300.64C489.004 2309.82 489.252 2319.86 488.508 2330.77C487.764 2341.93 486.648 2353.59 485.16 2365.74C483.92 2377.9 482.927 2390.3 482.183 2402.95C481.439 2415.35 481.811 2427.87 483.299 2440.52C484.788 2453.17 487.888 2465.32 492.6 2476.98C497.312 2488.88 504.381 2500.17 513.805 2510.83C523.23 2521.25 534.763 2531.05 548.404 2540.22C562.293 2549.4 577.422 2558.08 593.791 2566.26C610.16 2574.45 626.901 2582.39 644.014 2590.07C661.127 2597.51 677.62 2605.08 693.493 2612.77C709.614 2620.21 724.247 2627.77 737.392 2635.46C750.537 2643.15 761.326 2651.21 769.758 2659.64C777.943 2667.83 783.523 2676.63 786.499 2686.06C789.227 2695.48 789.723 2705.28 787.987 2715.45C786.499 2725.86 783.275 2736.65 778.315 2747.81C773.354 2758.97 767.526 2770.63 760.829 2782.78C754.133 2794.94 747.065 2807.46 739.624 2820.36C732.184 2833.25 725.115 2846.65 718.419 2860.54C711.722 2874.42 705.894 2888.68 700.934 2903.32Z" fill="#FFF27E"/>
</g>
<g filter="url(#filter2_f_0_1)">
<path fill-rule="evenodd" clip-rule="evenodd" d="M2289.93 3725.32C2284.97 3739.7 2280.63 3754.34 2276.91 3769.22C2273.19 3784.1 2269.72 3798.85 2266.5 3813.49C2263.02 3827.87 2259.68 3841.89 2256.45 3855.53C2252.98 3869.17 2249.01 3882.06 2244.55 3894.22C2240.08 3906.62 2234.87 3917.9 2228.92 3928.07C2222.72 3938.24 2215.53 3947.17 2207.34 3954.86C2198.91 3962.54 2189.36 3968.87 2178.7 3973.83C2168.28 3978.79 2156.87 3982.39 2144.47 3984.62C2132.32 3987.1 2119.67 3988.21 2106.53 3987.97C2093.13 3987.72 2079.49 3986.23 2065.6 3983.5C2051.71 3981.02 2037.7 3977.18 2023.56 3971.97C2009.68 3966.76 1996.03 3960.44 1982.64 3953C1969.25 3945.56 1956.1 3937.12 1943.21 3927.7C1930.56 3918.52 1918.28 3908.73 1906.38 3898.31C1894.22 3887.89 1882.57 3877.48 1871.41 3867.06C1860 3856.64 1848.96 3846.6 1838.3 3836.92C1827.63 3827.25 1817.34 3818.45 1807.42 3810.51C1797.25 3802.57 1787.58 3795.88 1778.4 3790.42C1768.98 3784.97 1759.8 3781 1750.87 3778.52C1741.69 3776.28 1732.64 3775.29 1723.71 3775.54C1714.78 3776.04 1705.73 3777.65 1696.56 3780.38C1687.13 3783.35 1677.21 3787.32 1666.79 3792.28C1656.62 3796.99 1645.71 3802.7 1634.06 3809.4C1622.4 3816.09 1609.87 3823.41 1596.48 3831.34C1583.09 3839.28 1568.7 3847.71 1553.33 3856.64C1537.95 3865.57 1521.95 3874.38 1505.33 3883.06C1488.72 3891.98 1472.1 3900.42 1455.48 3908.35C1438.87 3916.29 1422.75 3923.23 1407.12 3929.19C1391.5 3934.89 1376.99 3939.23 1363.59 3942.21C1349.95 3945.18 1338.05 3946.05 1327.88 3944.81C1317.71 3943.82 1309.53 3940.35 1303.33 3934.39C1297.37 3928.44 1293.16 3920.26 1290.68 3909.84C1288.44 3899.67 1287.33 3887.77 1287.33 3874.13C1287.58 3860.49 1288.57 3845.85 1290.3 3830.23C1291.79 3814.36 1293.53 3798.11 1295.51 3781.49C1297.25 3764.63 1298.61 3748.01 1299.61 3731.64C1300.6 3715.03 1300.47 3699.03 1299.23 3683.65C1298.24 3668.52 1296.13 3654.14 1292.91 3640.5C1289.93 3626.86 1286.46 3614.08 1282.49 3602.18C1278.52 3590.27 1274.93 3579.11 1271.7 3568.7C1268.23 3558.28 1265.5 3548.48 1263.52 3539.31C1261.78 3530.38 1261.53 3521.95 1262.78 3514.01C1263.77 3506.07 1266.99 3498.63 1272.45 3491.69C1277.66 3484.74 1285.1 3478.17 1294.77 3471.97C1304.69 3465.77 1316.1 3459.82 1329 3454.11C1341.89 3448.41 1355.41 3442.7 1369.55 3437C1383.93 3431.05 1398.19 3424.97 1412.33 3418.77C1426.47 3412.57 1439.73 3405.87 1452.14 3398.68C1464.54 3391.49 1475.2 3383.68 1484.13 3375.24C1493.31 3366.56 1500.13 3357.26 1504.59 3347.34C1509.06 3337.17 1511.66 3326.51 1512.4 3315.35C1513.4 3304.19 1513.02 3292.78 1511.29 3281.12C1509.55 3269.47 1507.32 3257.81 1504.59 3246.15C1501.86 3234.74 1499.13 3223.71 1496.41 3213.04C1493.68 3202.13 1491.69 3191.96 1490.45 3182.54C1488.97 3173.36 1488.84 3165.05 1490.08 3157.61C1491.32 3150.17 1493.93 3143.47 1497.89 3137.52C1501.61 3131.82 1506.45 3126.48 1512.4 3121.52C1518.36 3116.56 1524.93 3111.6 1532.12 3106.64C1539.56 3101.68 1547.5 3096.35 1555.93 3090.65C1564.36 3085.19 1573.04 3078.87 1581.97 3071.67C1590.65 3064.73 1599.46 3056.67 1608.39 3047.49C1617.07 3038.32 1625.62 3028.02 1634.06 3016.61C1642.49 3005.45 1650.92 2993.92 1659.35 2982.02C1667.54 2970.11 1675.72 2958.33 1683.91 2946.67C1692.09 2935.26 1700.28 2924.6 1708.46 2914.68C1716.4 2904.76 1724.46 2896.33 1732.64 2889.38C1740.83 2882.44 1749.13 2877.48 1757.57 2874.5C1766 2871.77 1774.43 2871.28 1782.86 2873.01C1791.3 2874.5 1799.98 2877.97 1808.91 2883.43C1817.59 2888.64 1826.52 2895.21 1835.69 2903.15C1844.62 2910.84 1853.67 2919.39 1862.85 2928.82C1872.27 2937.99 1881.7 2947.42 1891.12 2957.09C1900.8 2966.51 1910.47 2975.57 1920.14 2984.25C1930.06 2993.18 1940.11 3001.11 1950.28 3008.06C1960.2 3015.25 1970.12 3021.82 1980.04 3027.77C1989.71 3033.73 1999.13 3039.31 2008.31 3044.52C2017.24 3049.72 2025.67 3055.06 2033.61 3060.51C2041.55 3065.72 2048.49 3071.3 2054.44 3077.25C2060.64 3083.45 2065.6 3090.15 2069.32 3097.34C2073.29 3104.78 2075.77 3113.22 2076.76 3122.64C2078 3131.82 2078.25 3141.86 2077.51 3152.77C2076.76 3163.93 2075.65 3175.59 2074.16 3187.74C2072.92 3199.9 2071.93 3212.3 2071.18 3224.95C2070.44 3237.35 2070.81 3249.87 2072.3 3262.52C2073.79 3275.17 2076.89 3287.32 2081.6 3298.98C2086.31 3310.88 2093.38 3322.17 2102.81 3332.83C2112.23 3343.25 2123.76 3353.05 2137.4 3362.22C2151.29 3371.4 2166.42 3380.08 2182.79 3388.26C2199.16 3396.45 2215.9 3404.39 2233.01 3412.07C2250.13 3419.51 2266.62 3427.08 2282.49 3434.77C2298.61 3442.21 2313.25 3449.77 2326.39 3457.46C2339.54 3465.15 2350.33 3473.21 2358.76 3481.64C2366.94 3489.83 2372.52 3498.63 2375.5 3508.06C2378.23 3517.48 2378.72 3527.28 2376.99 3537.45C2375.5 3547.86 2372.27 3558.65 2367.31 3569.81C2362.35 3580.97 2356.53 3592.63 2349.83 3604.78C2343.13 3616.94 2336.06 3629.46 2328.62 3642.36C2321.18 3655.25 2314.12 3668.65 2307.42 3682.54C2300.72 3696.42 2294.89 3710.68 2289.93 3725.32Z" fill="#FFF27E"/>
</g>
<g filter="url(#filter3_f_0_1)">
<path fill-rule="evenodd" clip-rule="evenodd" d="M813.415 -228.228C809.388 -217.224 805.011 -206.573 800.283 -196.275C795.32 -185.744 790.124 -175.448 784.694 -165.387C779.264 -155.327 773.834 -145.266 768.404 -135.205C762.738 -124.911 757.308 -114.616 752.111 -104.32C746.446 -94.026 741.248 -83.4953 736.519 -72.7287C731.321 -61.9638 726.707 -50.8449 722.679 -39.3723C718.417 -28.1349 714.738 -16.3091 711.644 -3.89498C708.785 8.28557 706.627 21.1723 705.169 34.7649C703.713 47.8887 703.075 61.8363 703.254 76.6074C703.434 91.3787 704.314 106.622 705.897 122.336C707.479 138.05 709.529 154.001 712.048 170.188C714.566 186.375 717.201 202.914 719.951 219.805C722.703 236.227 725.572 252.767 728.557 269.425C731.31 285.847 733.828 302.034 736.113 317.986C738.396 334.406 740.095 350.238 741.21 365.482C742.561 380.492 743.092 395.147 742.804 409.448C742.283 423.513 740.826 436.871 738.434 449.523C736.043 462.174 732.365 473.765 727.402 484.297C722.673 495.063 716.658 504.77 709.358 513.417C702.291 522.299 694.173 530.122 685.004 536.886C675.833 544.119 665.846 550.294 655.042 555.41C644.238 560.527 632.617 564.819 620.178 568.288C608.208 571.759 595.537 574.524 582.165 576.583C569.029 578.408 555.544 579.411 541.711 579.593C527.642 580.008 513.459 579.602 499.162 578.374C484.865 577.147 470.687 575.335 456.629 572.936C442.337 570.302 428.283 566.966 414.465 562.927C400.412 559.122 386.596 554.615 373.017 549.404C359.437 544.663 345.859 539.219 332.284 533.071C318.707 527.392 305.131 521.244 291.558 514.628C277.985 508.011 264.294 501.276 250.487 494.424C236.915 487.339 222.991 480.369 208.715 473.515C194.675 466.427 180.283 459.221 165.54 451.897C150.795 445.041 135.698 438.301 120.249 431.677C105.035 424.82 89.2336 418.312 72.8449 412.153C56.4563 405.994 39.4801 400.185 21.9166 394.725C4.58667 389.501 -13.0964 384.627 -31.1323 380.103C-49.1665 375.11 -67.3193 370.469 -85.5905 366.179C-103.862 361.888 -121.9 357.834 -139.704 354.014C-157.506 349.726 -174.722 345.322 -191.351 340.804C-207.982 336.754 -223.908 332.238 -239.129 327.257C-254.116 322.51 -267.929 317.299 -280.569 311.624C-293.443 306.182 -304.674 300.043 -314.261 293.207C-324.083 286.605 -332.262 279.305 -338.797 271.309C-344.862 263.314 -349.049 254.389 -351.357 244.533C-353.9 234.911 -354.213 224.476 -352.295 213.23C-350.611 201.748 -347.517 189.569 -343.015 176.691C-338.276 163.58 -332.481 149.886 -325.629 135.611C-318.543 121.571 -310.867 106.713 -302.603 91.0361C-294.34 75.8284 -285.84 59.9181 -277.103 43.3056C-268.602 26.9265 -260.098 10.0784 -251.593 -7.23843C-243.088 -24.5553 -235.286 -42.1094 -228.186 -59.9006C-220.85 -77.9253 -214.569 -96.0713 -209.343 -114.339C-204.35 -132.841 -200.764 -151.349 -198.585 -169.863C-196.406 -188.376 -195.632 -207.129 -196.265 -226.123C-197.132 -244.882 -199.055 -263.529 -202.034 -282.062C-205.248 -300.361 -209.048 -318.546 -213.435 -336.616C-218.056 -354.921 -223.03 -372.641 -228.359 -389.777C-233.687 -406.912 -238.899 -423.696 -243.996 -440.127C-249.328 -456.324 -254.31 -471.935 -258.943 -486.957C-263.341 -502.214 -267.038 -516.53 -270.036 -529.905C-272.799 -543.514 -274.51 -556.064 -275.171 -567.554C-275.596 -579.279 -274.501 -589.942 -271.886 -599.545C-269.506 -608.914 -265.371 -617.455 -259.481 -625.17C-253.593 -632.415 -246.183 -639.069 -237.251 -645.13C-228.554 -650.958 -218.336 -656.194 -206.596 -660.838C-195.325 -665.484 -183 -669.774 -169.621 -673.708C-156.008 -677.876 -141.691 -681.807 -126.672 -685.501C-111.42 -688.959 -95.6978 -692.65 -79.506 -696.574C-63.3141 -700.497 -46.6523 -704.653 -29.5209 -709.042C-12.623 -713.666 4.51118 -718.759 21.8814 -724.319C39.2517 -729.879 56.508 -736.26 73.6499 -743.463C90.7919 -750.665 107.702 -758.572 124.38 -767.182C140.825 -776.028 157.155 -785.461 173.37 -795.48C189.583 -805.031 205.563 -815.051 221.311 -825.541C236.823 -835.797 252.217 -845.937 267.494 -855.96C282.773 -866.452 297.815 -876.241 312.619 -885.328C327.425 -894.884 341.994 -903.503 356.324 -911.185C370.656 -919.335 384.75 -926.315 398.604 -932.123C412.694 -938.165 426.544 -942.801 440.154 -946.031C453.765 -949.261 467.134 -950.851 480.263 -950.8C493.392 -950.75 506.398 -948.942 519.279 -945.376C531.692 -941.811 544.099 -936.606 556.499 -929.759C568.899 -922.912 580.943 -914.543 592.628 -904.651C604.316 -895.228 615.881 -884.516 627.324 -872.515C638.299 -860.516 648.918 -847.698 659.183 -834.06C669.682 -820.187 679.827 -805.729 689.617 -790.687C699.408 -775.644 708.845 -760.017 717.928 -743.805C726.542 -727.594 734.804 -711.268 742.714 -694.826C751.093 -678.382 758.65 -661.824 765.387 -645.152C772.359 -628.714 778.864 -612.512 784.9 -596.546C790.936 -580.58 796.386 -564.733 801.251 -549.006C806.115 -533.279 810.63 -517.905 814.794 -502.884C818.489 -487.865 821.716 -473.082 824.475 -458.535C827.234 -443.989 829.407 -429.562 830.995 -415.254C832.818 -401.18 833.939 -387.577 834.359 -374.446C834.777 -360.846 834.845 -347.599 834.562 -334.706C833.811 -321.814 832.592 -309.392 830.906 -297.442C829.218 -285.022 826.829 -273.074 823.738 -261.598C821.116 -250.12 817.675 -238.996 813.415 -228.228Z" fill="#71A2EC"/>
<path fill-rule="evenodd" clip-rule="evenodd" d="M813.415 -228.228C809.388 -217.224 805.011 -206.573 800.283 -196.275C795.32 -185.744 790.124 -175.448 784.694 -165.387C779.264 -155.327 773.834 -145.266 768.404 -135.205C762.738 -124.911 757.308 -114.616 752.111 -104.32C746.446 -94.026 741.248 -83.4953 736.519 -72.7287C731.321 -61.9638 726.707 -50.8449 722.679 -39.3723C718.417 -28.1349 714.738 -16.3091 711.644 -3.89498C708.785 8.28557 706.627 21.1723 705.169 34.7649C703.713 47.8887 703.075 61.8363 703.254 76.6074C703.434 91.3787 704.314 106.622 705.897 122.336C707.479 138.05 709.529 154.001 712.048 170.188C714.566 186.375 717.201 202.914 719.951 219.805C722.703 236.227 725.572 252.767 728.557 269.425C731.31 285.847 733.828 302.034 736.113 317.986C738.396 334.406 740.095 350.238 741.21 365.482C742.561 380.492 743.092 395.147 742.804 409.448C742.283 423.513 740.826 436.871 738.434 449.523C736.043 462.174 732.365 473.765 727.402 484.297C722.673 495.063 716.658 504.77 709.358 513.417C702.291 522.299 694.173 530.122 685.004 536.886C675.833 544.119 665.846 550.294 655.042 555.41C644.238 560.527 632.617 564.819 620.178 568.288C608.208 571.759 595.537 574.524 582.165 576.583C569.029 578.408 555.544 579.411 541.711 579.593C527.642 580.008 513.459 579.602 499.162 578.374C484.865 577.147 470.687 575.335 456.629 572.936C442.337 570.302 428.283 566.966 414.465 562.927C400.412 559.122 386.596 554.615 373.017 549.404C359.437 544.663 345.859 539.219 332.284 533.071C318.707 527.392 305.131 521.244 291.558 514.628C277.985 508.011 264.294 501.276 250.487 494.424C236.915 487.339 222.991 480.369 208.715 473.515C194.675 466.427 180.283 459.221 165.54 451.897C150.795 445.041 135.698 438.301 120.249 431.677C105.035 424.82 89.2336 418.312 72.8449 412.153C56.4563 405.994 39.4801 400.185 21.9166 394.725C4.58667 389.501 -13.0964 384.627 -31.1323 380.103C-49.1665 375.11 -67.3193 370.469 -85.5905 366.179C-103.862 361.888 -121.9 357.834 -139.704 354.014C-157.506 349.726 -174.722 345.322 -191.351 340.804C-207.982 336.754 -223.908 332.238 -239.129 327.257C-254.116 322.51 -267.929 317.299 -280.569 311.624C-293.443 306.182 -304.674 300.043 -314.261 293.207C-324.083 286.605 -332.262 279.305 -338.797 271.309C-344.862 263.314 -349.049 254.389 -351.357 244.533C-353.9 234.911 -354.213 224.476 -352.295 213.23C-350.611 201.748 -347.517 189.569 -343.015 176.691C-338.276 163.58 -332.481 149.886 -325.629 135.611C-318.543 121.571 -310.867 106.713 -302.603 91.0361C-294.34 75.8284 -285.84 59.9181 -277.103 43.3056C-268.602 26.9265 -260.098 10.0784 -251.593 -7.23843C-243.088 -24.5553 -235.286 -42.1094 -228.186 -59.9006C-220.85 -77.9253 -214.569 -96.0713 -209.343 -114.339C-204.35 -132.841 -200.764 -151.349 -198.585 -169.863C-196.406 -188.376 -195.632 -207.129 -196.265 -226.123C-197.132 -244.882 -199.055 -263.529 -202.034 -282.062C-205.248 -300.361 -209.048 -318.546 -213.435 -336.616C-218.056 -354.921 -223.03 -372.641 -228.359 -389.777C-233.687 -406.912 -238.899 -423.696 -243.996 -440.127C-249.328 -456.324 -254.31 -471.935 -258.943 -486.957C-263.341 -502.214 -267.038 -516.53 -270.036 -529.905C-272.799 -543.514 -274.51 -556.064 -275.171 -567.554C-275.596 -579.279 -274.501 -589.942 -271.886 -599.545C-269.506 -608.914 -265.371 -617.455 -259.481 -625.17C-253.593 -632.415 -246.183 -639.069 -237.251 -645.13C-228.554 -650.958 -218.336 -656.194 -206.596 -660.838C-195.325 -665.484 -183 -669.774 -169.621 -673.708C-156.008 -677.876 -141.691 -681.807 -126.672 -685.501C-111.42 -688.959 -95.6978 -692.65 -79.506 -696.574C-63.3141 -700.497 -46.6523 -704.653 -29.5209 -709.042C-12.623 -713.666 4.51118 -718.759 21.8814 -724.319C39.2517 -729.879 56.508 -736.26 73.6499 -743.463C90.7919 -750.665 107.702 -758.572 124.38 -767.182C140.825 -776.028 157.155 -785.461 173.37 -795.48C189.583 -805.031 205.563 -815.051 221.311 -825.541C236.823 -835.797 252.217 -845.937 267.494 -855.96C282.773 -866.452 297.815 -876.241 312.619 -885.328C327.425 -894.884 341.994 -903.503 356.324 -911.185C370.656 -919.335 384.75 -926.315 398.604 -932.123C412.694 -938.165 426.544 -942.801 440.154 -946.031C453.765 -949.261 467.134 -950.851 480.263 -950.8C493.392 -950.75 506.398 -948.942 519.279 -945.376C531.692 -941.811 544.099 -936.606 556.499 -929.759C568.899 -922.912 580.943 -914.543 592.628 -904.651C604.316 -895.228 615.881 -884.516 627.324 -872.515C638.299 -860.516 648.918 -847.698 659.183 -834.06C669.682 -820.187 679.827 -805.729 689.617 -790.687C699.408 -775.644 708.845 -760.017 717.928 -743.805C726.542 -727.594 734.804 -711.268 742.714 -694.826C751.093 -678.382 758.65 -661.824 765.387 -645.152C772.359 -628.714 778.864 -612.512 784.9 -596.546C790.936 -580.58 796.386 -564.733 801.251 -549.006C806.115 -533.279 810.63 -517.905 814.794 -502.884C818.489 -487.865 821.716 -473.082 824.475 -458.535C827.234 -443.989 829.407 -429.562 830.995 -415.254C832.818 -401.18 833.939 -387.577 834.359 -374.446C834.777 -360.846 834.845 -347.599 834.562 -334.706C833.811 -321.814 832.592 -309.392 830.906 -297.442C829.218 -285.022 826.829 -273.074 823.738 -261.598C821.116 -250.12 817.675 -238.996 813.415 -228.228Z" stroke="black"/>
</g>
<g filter="url(#filter4_f_0_1)">
<path fill-rule="evenodd" clip-rule="evenodd" d="M2756.01 1785.19C2741.45 1801.71 2724.91 1817.65 2706.37 1833C2688.29 1848.44 2669.2 1863.58 2649.13 1878.43C2629.13 1892.83 2609.44 1906.82 2590.06 1920.4C2570.67 1933.97 2552.89 1947.02 2536.72 1959.53C2520.28 1972.23 2506.39 1984.33 2495.05 1995.83C2483.71 2007.33 2474.88 2018.46 2468.55 2029.21C2462.42 2040.23 2458.43 2050.92 2456.6 2061.3C2454.49 2071.87 2454.11 2082.61 2455.43 2093.55C2456.49 2104.66 2458.9 2116.02 2462.66 2127.61C2466.16 2139.39 2470.35 2151.87 2475.23 2165.06C2479.93 2177.98 2484.86 2191.52 2490.03 2205.69C2495.47 2219.67 2500.32 2233.66 2504.59 2247.67C2508.94 2261.22 2512.33 2274.26 2514.77 2286.79C2517.48 2299.13 2518.44 2310.11 2517.67 2319.74C2516.89 2329.38 2514.14 2337.04 2509.42 2342.72C2504.69 2348.4 2497.66 2351.94 2488.34 2353.33C2479.21 2354.98 2468.34 2355.28 2455.73 2354.23C2443.57 2353.26 2430.51 2352.13 2416.54 2350.84C2402.58 2349.55 2388.68 2349.2 2374.85 2349.8C2361.02 2350.4 2348.13 2352.9 2336.18 2357.32C2324.23 2361.73 2313.69 2368.72 2304.55 2378.28C2295.42 2387.84 2287.58 2399.26 2281.04 2412.53C2274.51 2425.81 2268.7 2439.56 2263.63 2453.79C2258.28 2468.2 2253.1 2481.71 2248.08 2494.32C2243.51 2507.01 2238.26 2517.6 2232.34 2526.1C2226.87 2534.68 2220.43 2540.18 2213.02 2542.6C2205.69 2544.57 2197.45 2543.82 2188.29 2540.35C2178.86 2537.07 2168.59 2532.01 2157.47 2525.17C2146.54 2518.6 2134.7 2511.87 2121.96 2504.98C2109.67 2498.17 2096.5 2492.37 2082.46 2487.58C2068.6 2483.05 2054.21 2480.88 2039.29 2481.05C2024.37 2481.22 2009.11 2484.01 1993.49 2489.41C1977.8 2495.26 1961.87 2502.46 1945.7 2511.02C1929.71 2519.85 1913.65 2529.12 1897.5 2538.85C1881.44 2548.12 1865.58 2556.85 1849.94 2565.04C1834.04 2573.41 1818.62 2579.66 1803.7 2583.79C1788.78 2587.92 1774.52 2589.6 1760.93 2588.84C1747.15 2587.82 1734.4 2584.3 1722.66 2578.29C1710.93 2572.27 1700.63 2564.07 1691.77 2553.67C1682.91 2543.28 1675.66 2530.96 1670.04 2516.71C1664.87 2502.55 1661.82 2486.89 1660.9 2469.75C1659.98 2452.61 1661.36 2434.25 1665.06 2414.66C1668.94 2395.34 1674.61 2375.16 1682.05 2354.14C1689.22 2333.3 1697.57 2312.44 1707.08 2291.54C1716.14 2270.57 1725.12 2250.05 1734.02 2229.98C1743.19 2209.73 1751.44 2190.71 1758.77 2172.92C1765.92 2154.87 1771.27 2138.48 1774.8 2123.75C1778.34 2109.02 1779.88 2095.68 1779.44 2083.74C1778.91 2072.25 1776.7 2061.74 1772.8 2052.22C1768.71 2042.43 1763.21 2033.44 1756.28 2025.25C1749.43 2016.6 1741.25 2008.3 1731.72 2000.35C1722.46 1992.21 1712.11 1983.65 1700.67 1974.66C1689.41 1965.94 1677.56 1956.65 1665.12 1946.79C1652.67 1936.93 1640.3 1926.62 1628.01 1915.85C1615.91 1905.35 1604.52 1894.75 1593.86 1884.04C1583.19 1873.33 1574.01 1862.76 1566.31 1852.34C1558.43 1841.65 1552.8 1831.36 1549.44 1821.46C1545.62 1811.49 1544.37 1802.08 1545.7 1793.24C1546.85 1784.14 1549.61 1775.09 1554 1766.09C1558.65 1756.9 1563.83 1747.35 1569.54 1737.42C1575.52 1727.3 1581.2 1716.2 1586.6 1704.12C1592.18 1692.31 1596.64 1678.91 1599.99 1663.91C1603.08 1649.1 1604.28 1632.45 1603.59 1613.95C1603.18 1595.27 1601.25 1575.28 1597.8 1553.97C1594.36 1532.66 1590.36 1510.56 1585.8 1487.66C1580.98 1464.95 1576.42 1442.06 1572.13 1418.97C1568.02 1396.15 1565.05 1374.12 1563.23 1352.86C1561.67 1331.42 1561.95 1311.47 1564.05 1293C1565.97 1274.26 1570.22 1257.45 1576.81 1242.55C1583.4 1227.66 1591.74 1214.7 1601.84 1203.68C1612.11 1192.92 1623.75 1184.38 1636.73 1178.06C1649.98 1171.54 1664.19 1167.52 1679.34 1166C1694.77 1164.29 1710.89 1165.25 1727.69 1168.9C1744.49 1172.55 1761.71 1178.48 1779.33 1186.69C1796.96 1194.9 1814.93 1204.45 1833.24 1215.34C1851.37 1225.97 1869.69 1236.86 1888.19 1248.02C1906.42 1259.36 1924.68 1269.89 1942.97 1279.61C1961.34 1288.89 1979.22 1296.33 1996.6 1301.94C2014.44 1307.63 2031.82 1310.68 2048.73 1311.09C2065.45 1311.23 2081.78 1309.68 2097.71 1306.43C2113.64 1303.18 2129.11 1299.26 2144.11 1294.69C2158.93 1289.84 2173.27 1285.73 2187.12 1282.35C2201.06 1278.52 2214.23 1276.41 2226.63 1276.03C2239.3 1275.46 2251.29 1277.33 2262.63 1281.65C2273.88 1286.41 2284.87 1293.34 2295.6 1302.44C2306.58 1311.34 2317.56 1321.64 2328.52 1333.34C2339.48 1345.03 2350.94 1357.16 2362.91 1369.73C2374.88 1382.3 2387.78 1394.21 2401.61 1405.48C2415.35 1417.2 2430.55 1427.31 2447.19 1435.81C2463.57 1444.5 2481.26 1451.68 2500.27 1457.34C2519.01 1463.19 2538.27 1468.08 2558.05 1472.02C2578.01 1476.22 2597.88 1480.29 2617.66 1484.23C2637.35 1488.62 2656.39 1493.47 2674.76 1498.79C2692.68 1504.03 2709.41 1510.69 2724.97 1518.77C2740.52 1526.85 2754 1536.77 2765.42 1548.55C2777.09 1560.13 2786.65 1573.21 2794.07 1587.77C2801.32 1602.07 2806.06 1617.32 2808.31 1633.53C2810.83 1649.56 2810.57 1666.14 2807.54 1683.29C2804.96 1700.51 2799.23 1717.77 2790.35 1735.05C2781.75 1752.15 2770.3 1768.86 2756.01 1785.19Z" fill="#7B61FF"/>
<path fill-rule="evenodd" clip-rule="evenodd" d="M2756.01 1785.19C2741.45 1801.71 2724.91 1817.65 2706.37 1833C2688.29 1848.44 2669.2 1863.58 2649.13 1878.43C2629.13 1892.83 2609.44 1906.82 2590.06 1920.4C2570.67 1933.97 2552.89 1947.02 2536.72 1959.53C2520.28 1972.23 2506.39 1984.33 2495.05 1995.83C2483.71 2007.33 2474.88 2018.46 2468.55 2029.21C2462.42 2040.23 2458.43 2050.92 2456.6 2061.3C2454.49 2071.87 2454.11 2082.61 2455.43 2093.55C2456.49 2104.66 2458.9 2116.02 2462.66 2127.61C2466.16 2139.39 2470.35 2151.87 2475.23 2165.06C2479.93 2177.98 2484.86 2191.52 2490.03 2205.69C2495.47 2219.67 2500.32 2233.66 2504.59 2247.67C2508.94 2261.22 2512.33 2274.26 2514.77 2286.79C2517.48 2299.13 2518.44 2310.11 2517.67 2319.74C2516.89 2329.38 2514.14 2337.04 2509.42 2342.72C2504.69 2348.4 2497.66 2351.94 2488.34 2353.33C2479.21 2354.98 2468.34 2355.28 2455.73 2354.23C2443.57 2353.26 2430.51 2352.13 2416.54 2350.84C2402.58 2349.55 2388.68 2349.2 2374.85 2349.8C2361.02 2350.4 2348.13 2352.9 2336.18 2357.32C2324.23 2361.73 2313.69 2368.72 2304.55 2378.28C2295.42 2387.84 2287.58 2399.26 2281.04 2412.53C2274.51 2425.81 2268.7 2439.56 2263.63 2453.79C2258.28 2468.2 2253.1 2481.71 2248.08 2494.32C2243.51 2507.01 2238.26 2517.6 2232.34 2526.1C2226.87 2534.68 2220.43 2540.18 2213.02 2542.6C2205.69 2544.57 2197.45 2543.82 2188.29 2540.35C2178.86 2537.07 2168.59 2532.01 2157.47 2525.17C2146.54 2518.6 2134.7 2511.87 2121.96 2504.98C2109.67 2498.17 2096.5 2492.37 2082.46 2487.58C2068.6 2483.05 2054.21 2480.88 2039.29 2481.05C2024.37 2481.22 2009.11 2484.01 1993.49 2489.41C1977.8 2495.26 1961.87 2502.46 1945.7 2511.02C1929.71 2519.85 1913.65 2529.12 1897.5 2538.85C1881.44 2548.12 1865.58 2556.85 1849.94 2565.04C1834.04 2573.41 1818.62 2579.66 1803.7 2583.79C1788.78 2587.92 1774.52 2589.6 1760.93 2588.84C1747.15 2587.82 1734.4 2584.3 1722.66 2578.29C1710.93 2572.27 1700.63 2564.07 1691.77 2553.67C1682.91 2543.28 1675.66 2530.96 1670.04 2516.71C1664.87 2502.55 1661.82 2486.89 1660.9 2469.75C1659.98 2452.61 1661.36 2434.25 1665.06 2414.66C1668.94 2395.34 1674.61 2375.16 1682.05 2354.14C1689.22 2333.3 1697.57 2312.44 1707.08 2291.54C1716.14 2270.57 1725.12 2250.05 1734.02 2229.98C1743.19 2209.73 1751.44 2190.71 1758.77 2172.92C1765.92 2154.87 1771.27 2138.48 1774.8 2123.75C1778.34 2109.02 1779.88 2095.68 1779.44 2083.74C1778.91 2072.25 1776.7 2061.74 1772.8 2052.22C1768.71 2042.43 1763.21 2033.44 1756.28 2025.25C1749.43 2016.6 1741.25 2008.3 1731.72 2000.35C1722.46 1992.21 1712.11 1983.65 1700.67 1974.66C1689.41 1965.94 1677.56 1956.65 1665.12 1946.79C1652.67 1936.93 1640.3 1926.62 1628.01 1915.85C1615.91 1905.35 1604.52 1894.75 1593.86 1884.04C1583.19 1873.33 1574.01 1862.76 1566.31 1852.34C1558.43 1841.65 1552.8 1831.36 1549.44 1821.46C1545.62 1811.49 1544.37 1802.08 1545.7 1793.24C1546.85 1784.14 1549.61 1775.09 1554 1766.09C1558.65 1756.9 1563.83 1747.35 1569.54 1737.42C1575.52 1727.3 1581.2 1716.2 1586.6 1704.12C1592.18 1692.31 1596.64 1678.91 1599.99 1663.91C1603.08 1649.1 1604.28 1632.45 1603.59 1613.95C1603.18 1595.27 1601.25 1575.28 1597.8 1553.97C1594.36 1532.66 1590.36 1510.56 1585.8 1487.66C1580.98 1464.95 1576.42 1442.06 1572.13 1418.97C1568.02 1396.15 1565.05 1374.12 1563.23 1352.86C1561.67 1331.42 1561.95 1311.47 1564.05 1293C1565.97 1274.26 1570.22 1257.45 1576.81 1242.55C1583.4 1227.66 1591.74 1214.7 1601.84 1203.68C1612.11 1192.92 1623.75 1184.38 1636.73 1178.06C1649.98 1171.54 1664.19 1167.52 1679.34 1166C1694.77 1164.29 1710.89 1165.25 1727.69 1168.9C1744.49 1172.55 1761.71 1178.48 1779.33 1186.69C1796.96 1194.9 1814.93 1204.45 1833.24 1215.34C1851.37 1225.97 1869.69 1236.86 1888.19 1248.02C1906.42 1259.36 1924.68 1269.89 1942.97 1279.61C1961.34 1288.89 1979.22 1296.33 1996.6 1301.94C2014.44 1307.63 2031.82 1310.68 2048.73 1311.09C2065.45 1311.23 2081.78 1309.68 2097.71 1306.43C2113.64 1303.18 2129.11 1299.26 2144.11 1294.69C2158.93 1289.84 2173.27 1285.73 2187.12 1282.35C2201.06 1278.52 2214.23 1276.41 2226.63 1276.03C2239.3 1275.46 2251.29 1277.33 2262.63 1281.65C2273.88 1286.41 2284.87 1293.34 2295.6 1302.44C2306.58 1311.34 2317.56 1321.64 2328.52 1333.34C2339.48 1345.03 2350.94 1357.16 2362.91 1369.73C2374.88 1382.3 2387.78 1394.21 2401.61 1405.48C2415.35 1417.2 2430.55 1427.31 2447.19 1435.81C2463.57 1444.5 2481.26 1451.68 2500.27 1457.34C2519.01 1463.19 2538.27 1468.08 2558.05 1472.02C2578.01 1476.22 2597.88 1480.29 2617.66 1484.23C2637.35 1488.62 2656.39 1493.47 2674.76 1498.79C2692.68 1504.03 2709.41 1510.69 2724.97 1518.77C2740.52 1526.85 2754 1536.77 2765.42 1548.55C2777.09 1560.13 2786.65 1573.21 2794.07 1587.77C2801.32 1602.07 2806.06 1617.32 2808.31 1633.53C2810.83 1649.56 2810.57 1666.14 2807.54 1683.29C2804.96 1700.51 2799.23 1717.77 2790.35 1735.05C2781.75 1752.15 2770.3 1768.86 2756.01 1785.19Z" stroke="black"/>
</g>
<g filter="url(#filter5_f_0_1)">
<path fill-rule="evenodd" clip-rule="evenodd" d="M254.584 1467.98C273.481 1477.98 294.229 1488.54 316.828 1499.68C339.689 1510.7 362.992 1521.98 386.739 1533.54C410.606 1545.36 433.769 1557.04 456.227 1568.56C478.807 1580.34 499.525 1591.87 518.382 1603.15C537.359 1614.69 553.128 1625.81 565.687 1636.51C578.245 1647.21 586.699 1657.26 591.049 1666.68C595.136 1676.21 595.31 1685.18 591.571 1693.57C587.952 1702.22 581.184 1710.58 571.267 1718.65C561.612 1726.61 549.763 1734.62 535.722 1742.69C521.942 1750.64 506.934 1758.69 490.7 1766.82C474.465 1774.96 458.089 1783.47 441.573 1792.37C425.057 1801.27 409.296 1810.78 394.289 1820.88C379.282 1830.99 365.231 1841.45 352.136 1852.25C339.041 1863.06 326.791 1873.64 315.386 1883.99C303.86 1894.07 292.868 1903.59 282.408 1912.55C271.827 1921.25 261.488 1928.4 251.389 1934.02C241.411 1939.9 231.11 1943.71 220.487 1945.44C210.126 1947.05 199.391 1946.14 188.283 1942.71C177.054 1939.01 165.262 1932.72 152.905 1923.83C140.809 1914.82 128.129 1903.86 114.865 1890.95C101.722 1878.3 88.4179 1864.61 74.9523 1849.89C61.2251 1835.29 47.6286 1820.62 34.1629 1805.9C20.4358 1791.3 6.8698 1777.73 -6.53476 1765.2C-19.9393 1752.68 -33.0817 1742.09 -45.9618 1733.44C-58.842 1724.79 -71.2886 1718.8 -83.3018 1715.47C-95.315 1712.13 -107.146 1711.25 -118.796 1712.83C-130.445 1714.4 -142.225 1718.1 -154.134 1723.92C-166.044 1729.73 -178.385 1737.02 -191.159 1745.78C-203.55 1754.68 -216.817 1764.77 -230.958 1776.07C-244.837 1787.24 -259.834 1799.08 -275.946 1811.6C-291.938 1824.39 -309.157 1837.26 -327.603 1850.22C-345.929 1863.45 -365.019 1876.39 -384.874 1889.06C-405.111 1901.58 -425.46 1913.52 -445.919 1924.87C-466.116 1936.11 -485.891 1946.2 -505.245 1955.14C-524.719 1963.82 -543.046 1970.86 -560.227 1976.25C-577.288 1981.91 -592.468 1985.12 -605.768 1985.87C-619.208 1987 -630.114 1985.38 -638.486 1980.99C-647.119 1976.73 -652.896 1969.72 -655.816 1959.96C-658.878 1950.59 -659.425 1939.1 -657.458 1925.5C-655.611 1911.64 -651.663 1896.48 -645.612 1880.04C-639.299 1863.48 -631.096 1846.21 -621.001 1828.22C-611.027 1809.96 -599.373 1791.57 -586.04 1773.03C-572.585 1754.76 -557.782 1736.66 -541.631 1718.72C-525.359 1701.05 -508.081 1684.19 -489.797 1668.12C-471.895 1651.92 -453.439 1636.57 -434.43 1622.08C-415.42 1607.58 -396.632 1593.99 -378.065 1581.28C-359.357 1568.2 -341.645 1556.05 -324.928 1544.84C-308.071 1533.24 -292.722 1522.5 -278.883 1512.62C-265.043 1502.73 -253.416 1493.55 -244.002 1485.08C-234.327 1476.48 -227.187 1468.58 -222.582 1461.38C-218.359 1454.03 -216.53 1447 -217.096 1440.28C-217.279 1433.7 -219.776 1426.92 -224.587 1419.94C-229.278 1413.22 -235.829 1406.26 -244.242 1399.04C-252.514 1391.43 -262.246 1383.08 -273.436 1373.97C-284.505 1365.12 -296.762 1355.07 -310.206 1343.83C-323.912 1332.71 -338.222 1320.28 -353.136 1306.55C-368.433 1292.67 -383.951 1277.63 -399.691 1261.42C-415.29 1244.82 -430.869 1227.59 -446.428 1209.71C-461.726 1191.71 -476.169 1173.15 -489.757 1154.04C-503.485 1135.32 -515.856 1116.44 -526.868 1097.41C-538.142 1078.5 -547.424 1059.78 -554.714 1041.26C-561.883 1022.99 -566.818 1005.44 -569.52 988.597C-571.96 971.637 -571.855 955.722 -569.204 940.853C-566.814 926.104 -562.151 912.843 -555.213 901.071C-548.658 889.157 -540.16 879.044 -529.72 870.73C-519.542 862.537 -508.075 856.447 -495.32 852.458C-482.444 848.731 -468.611 847.418 -453.822 848.519C-439.033 849.619 -423.75 853.507 -407.973 860.18C-392.075 867.116 -376.066 876.696 -359.945 888.923C-343.704 901.411 -327.321 915.579 -310.796 931.427C-294.01 947.154 -277.436 963.455 -261.072 980.329C-244.326 997.344 -227.69 1013.78 -211.166 1029.62C-194.38 1045.35 -177.866 1059.46 -161.625 1071.95C-145.122 1084.31 -128.921 1093.96 -113.024 1100.9C-96.8643 1107.71 -81.1087 1110.91 -65.7567 1110.48C-50.4047 1110.05 -35.2147 1106.52 -20.1867 1099.9C-5.29942 1093.66 9.39595 1085.28 23.8995 1074.77C38.4031 1064.26 52.6146 1052.78 66.534 1040.32C80.4533 1027.86 94.1113 1015.52 107.508 1003.3C121.045 990.704 134.29 979.19 147.245 968.763C160.199 958.336 173.033 949.71 185.747 942.884C198.2 936.179 210.331 931.527 222.141 928.927C233.951 926.327 245.057 925.639 255.46 926.862C265.601 928.206 274.918 931.2 283.411 935.845C291.782 940.227 299.008 946.25 305.087 953.914C310.904 961.698 315.334 970.599 318.375 980.618C321.276 991.018 322.276 1002.46 321.375 1014.93C320.856 1027.55 318.637 1040.95 314.718 1055.13C310.538 1069.44 305.181 1084.29 298.646 1099.68C291.992 1114.82 284.622 1130.12 276.539 1145.6C268.315 1161.45 259.648 1177.04 250.538 1192.35C241.429 1207.67 232.4 1222.47 223.451 1236.76C214.24 1251.17 205.512 1264.56 197.267 1276.94C189.404 1289.46 182.214 1301.03 175.699 1311.65C169.445 1322.16 164.307 1331.99 160.286 1341.15C156.527 1350.18 154.266 1358.68 153.504 1366.65C152.863 1374.88 154.163 1382.85 157.405 1390.55C160.386 1398.38 165.942 1406.28 174.073 1414.27C181.943 1422.37 192.509 1430.82 205.772 1439.6C219.416 1448.53 235.687 1457.99 254.584 1467.98Z" fill="#E58FA4"/>
</g>
<path fill-rule="evenodd" clip-rule="evenodd" d="M2237.58 4671.98C2256.48 4681.98 2277.23 4692.54 2299.83 4703.68C2322.69 4714.7 2345.99 4725.98 2369.74 4737.54C2393.61 4749.36 2416.77 4761.04 2439.23 4772.56C2461.81 4784.34 2482.52 4795.87 2501.38 4807.15C2520.36 4818.69 2536.13 4829.81 2548.69 4840.51C2561.25 4851.21 2569.7 4861.26 2574.05 4870.68C2578.14 4880.21 2578.31 4889.18 2574.57 4897.57C2570.95 4906.22 2564.18 4914.58 2554.27 4922.65C2544.61 4930.61 2532.76 4938.62 2518.72 4946.69C2504.94 4954.64 2489.93 4962.69 2473.7 4970.82C2457.46 4978.96 2441.09 4987.47 2424.57 4996.37C2408.06 5005.27 2392.3 5014.78 2377.29 5024.88C2362.28 5034.99 2348.23 5045.45 2335.14 5056.25C2322.04 5067.06 2309.79 5077.64 2298.39 5087.99C2286.86 5098.07 2275.87 5107.59 2265.41 5116.55C2254.83 5125.25 2244.49 5132.4 2234.39 5138.02C2224.41 5143.9 2214.11 5147.71 2203.49 5149.44C2193.13 5151.05 2182.39 5150.14 2171.28 5146.71C2160.05 5143.01 2148.26 5136.72 2135.9 5127.83C2123.81 5118.82 2111.13 5107.86 2097.87 5094.95C2084.72 5082.3 2071.42 5068.61 2057.95 5053.89C2044.23 5039.29 2030.63 5024.62 2017.16 5009.9C2003.44 4995.3 1989.87 4981.73 1976.47 4969.2C1963.06 4956.68 1949.92 4946.09 1937.04 4937.44C1924.16 4928.79 1911.71 4922.8 1899.7 4919.47C1887.69 4916.13 1875.85 4915.25 1864.2 4916.83C1852.55 4918.4 1840.78 4922.1 1828.87 4927.92C1816.96 4933.73 1804.61 4941.02 1791.84 4949.78C1779.45 4958.68 1766.18 4968.77 1752.04 4980.07C1738.16 4991.24 1723.17 5003.08 1707.05 5015.6C1691.06 5028.39 1673.84 5041.26 1655.4 5054.22C1637.07 5067.45 1617.98 5080.39 1598.13 5093.06C1577.89 5105.58 1557.54 5117.52 1537.08 5128.87C1516.88 5140.11 1497.11 5150.2 1477.76 5159.14C1458.28 5167.82 1439.95 5174.86 1422.77 5180.25C1405.71 5185.91 1390.53 5189.12 1377.23 5189.87C1363.79 5191 1352.89 5189.38 1344.51 5184.99C1335.88 5180.73 1330.1 5173.72 1327.18 5163.96C1324.12 5154.59 1323.57 5143.1 1325.54 5129.5C1327.39 5115.64 1331.34 5100.48 1337.39 5084.04C1343.7 5067.48 1351.9 5050.21 1362 5032.22C1371.97 5013.96 1383.63 4995.57 1396.96 4977.03C1410.42 4958.76 1425.22 4940.66 1441.37 4922.72C1457.64 4905.05 1474.92 4888.19 1493.2 4872.12C1511.11 4855.92 1529.56 4840.57 1548.57 4826.08C1567.58 4811.58 1586.37 4797.99 1604.93 4785.28C1623.64 4772.2 1641.36 4760.05 1658.07 4748.84C1674.93 4737.24 1690.28 4726.5 1704.12 4716.62C1717.96 4706.73 1729.58 4697.55 1739 4689.08C1748.67 4680.48 1755.81 4672.58 1760.42 4665.38C1764.64 4658.03 1766.47 4651 1765.9 4644.28C1765.72 4637.7 1763.22 4630.92 1758.41 4623.94C1753.72 4617.22 1747.17 4610.26 1738.76 4603.04C1730.49 4595.43 1720.75 4587.08 1709.56 4577.97C1698.49 4569.12 1686.24 4559.07 1672.79 4547.83C1659.09 4536.71 1644.78 4524.28 1629.86 4510.55C1614.57 4496.67 1599.05 4481.63 1583.31 4465.42C1567.71 4448.82 1552.13 4431.59 1536.57 4413.71C1521.27 4395.71 1506.83 4377.15 1493.24 4358.04C1479.51 4339.32 1467.14 4320.44 1456.13 4301.41C1444.86 4282.5 1435.58 4263.78 1428.29 4245.26C1421.12 4226.99 1416.18 4209.44 1413.48 4192.6C1411.04 4175.64 1411.15 4159.72 1413.8 4144.85C1416.19 4130.1 1420.85 4116.84 1427.79 4105.07C1434.34 4093.16 1442.84 4083.04 1453.28 4074.73C1463.46 4066.54 1474.93 4060.45 1487.68 4056.46C1500.56 4052.73 1514.39 4051.42 1529.18 4052.52C1543.97 4053.62 1559.25 4057.51 1575.03 4064.18C1590.92 4071.12 1606.93 4080.7 1623.05 4092.92C1639.3 4105.41 1655.68 4119.58 1672.2 4135.43C1688.99 4151.15 1705.56 4167.45 1721.93 4184.33C1738.67 4201.34 1755.31 4217.78 1771.83 4233.62C1788.62 4249.35 1805.13 4263.46 1821.38 4275.95C1837.88 4288.31 1854.08 4297.96 1869.98 4304.9C1886.14 4311.71 1901.89 4314.91 1917.24 4314.48C1932.6 4314.05 1947.79 4310.52 1962.81 4303.9C1977.7 4297.66 1992.4 4289.28 2006.9 4278.77C2021.4 4268.26 2035.61 4256.78 2049.53 4244.32C2063.45 4231.86 2077.11 4219.52 2090.51 4207.3C2104.04 4194.7 2117.29 4183.19 2130.24 4172.76C2143.2 4162.34 2156.03 4153.71 2168.75 4146.88C2181.2 4140.18 2193.33 4135.53 2205.14 4132.93C2216.95 4130.33 2228.06 4129.64 2238.46 4130.86C2248.6 4132.21 2257.92 4135.2 2266.41 4139.84C2274.78 4144.23 2282.01 4150.25 2288.09 4157.91C2293.9 4165.7 2298.33 4174.6 2301.38 4184.62C2304.28 4195.02 2305.28 4206.46 2304.37 4218.93C2303.86 4231.55 2301.64 4244.95 2297.72 4259.13C2293.54 4273.44 2288.18 4288.29 2281.65 4303.68C2274.99 4318.82 2267.62 4334.12 2259.54 4349.6C2251.31 4365.45 2242.65 4381.04 2233.54 4396.35C2224.43 4411.67 2215.4 4426.47 2206.45 4440.76C2197.24 4455.17 2188.51 4468.56 2180.27 4480.94C2172.4 4493.46 2165.21 4505.03 2158.7 4515.65C2152.44 4526.16 2147.31 4535.99 2143.29 4545.15C2139.53 4554.18 2137.27 4562.68 2136.5 4570.65C2135.86 4578.88 2137.16 4586.85 2140.41 4594.55C2143.39 4602.38 2148.94 4610.28 2157.07 4618.27C2164.94 4626.37 2175.51 4634.82 2188.77 4643.6C2202.42 4652.53 2218.69 4661.99 2237.58 4671.98Z" fill="#E58FA4"/>
<path fill-rule="evenodd" clip-rule="evenodd" d="M1827.12 1963.47C1812.83 1947.56 1797.01 1930.48 1779.65 1912.22C1762.01 1893.99 1744.04 1875.34 1725.75 1856.29C1707.43 1836.95 1689.73 1818 1672.63 1799.43C1655.51 1780.57 1640.05 1762.59 1626.26 1745.49C1612.43 1728.11 1601.48 1712.22 1593.39 1697.84C1585.3 1683.47 1580.84 1671.11 1580.01 1660.77C1579.47 1650.41 1582.4 1641.94 1588.81 1635.36C1595.2 1628.49 1604.44 1622.98 1616.53 1618.83C1628.34 1614.7 1642.23 1611.28 1658.19 1608.55C1673.87 1605.85 1690.73 1603.48 1708.78 1601.46C1726.82 1599.43 1745.13 1597.1 1763.71 1594.45C1782.28 1591.81 1800.35 1588.34 1817.93 1584.04C1835.5 1579.74 1852.3 1574.78 1868.32 1569.16C1884.35 1563.54 1899.5 1557.84 1913.77 1552.07C1928.07 1546.59 1941.68 1541.46 1954.59 1536.66C1967.52 1532.16 1979.7 1529.01 1991.12 1527.23C2002.51 1525.16 2013.49 1525.15 2024.06 1527.19C2034.34 1529.26 2044.1 1533.82 2053.34 1540.88C2062.6 1548.23 2071.49 1558.21 2080.02 1570.82C2088.25 1583.45 2096.37 1598.12 2104.35 1614.82C2112.32 1631.23 2120.07 1648.67 2127.62 1667.14C2135.46 1685.58 2143.16 1704.04 2150.71 1722.51C2158.54 1740.95 2166.59 1758.37 2174.84 1774.76C2183.09 1791.15 2191.76 1805.62 2200.86 1818.19C2209.96 1830.75 2219.57 1840.67 2229.7 1847.95C2239.82 1855.23 2250.62 1860.15 2262.09 1862.7C2273.57 1865.24 2285.9 1865.84 2299.09 1864.5C2312.27 1863.15 2326.37 1860.57 2341.38 1856.77C2356.09 1852.7 2372.02 1847.81 2389.2 1842.1C2406.08 1836.41 2424.25 1830.47 2443.69 1824.29C2463.11 1817.82 2483.72 1811.69 2505.51 1805.89C2527.28 1799.81 2549.66 1794.26 2572.67 1789.24C2595.99 1784.48 2619.21 1780.3 2642.33 1776.71C2665.17 1773.15 2687.21 1770.52 2708.46 1768.81C2729.73 1767.39 2749.36 1767.12 2767.35 1767.99C2785.32 1768.57 2800.67 1770.81 2813.41 1774.7C2826.41 1778.28 2836.09 1783.57 2842.43 1790.58C2849.06 1797.56 2852.06 1806.13 2851.43 1816.3C2851.06 1826.15 2847.61 1837.12 2841.06 1849.21C2834.54 1861.58 2825.6 1874.44 2814.24 1887.77C2802.6 1901.13 2788.93 1914.51 2773.24 1927.91C2757.57 1941.59 2740.28 1954.83 2721.37 1967.61C2702.43 1980.11 2682.28 1991.99 2660.93 2003.24C2639.56 2014.2 2617.51 2024.06 2594.81 2032.82C2572.41 2041.84 2549.79 2049.87 2526.94 2056.9C2504.09 2063.93 2481.77 2070.2 2459.95 2075.71C2437.88 2081.53 2417.06 2086.81 2397.5 2091.56C2377.67 2096.61 2359.56 2101.39 2343.15 2105.88C2326.75 2110.38 2312.67 2114.98 2300.91 2119.68C2288.86 2124.4 2279.43 2129.35 2272.62 2134.52C2266.12 2139.95 2261.97 2145.92 2260.18 2152.42C2258.08 2158.66 2258.08 2165.88 2260.19 2174.09C2262.27 2182.02 2266.01 2190.82 2271.41 2200.5C2276.55 2210.5 2282.79 2221.7 2290.14 2234.11C2297.48 2246.24 2305.51 2259.9 2314.24 2275.1C2323.26 2290.27 2332.4 2306.87 2341.65 2324.92C2351.21 2343.22 2360.57 2362.7 2369.74 2383.35C2378.65 2404.31 2387.31 2425.87 2395.74 2448.03C2403.87 2470.2 2411.02 2492.61 2417.17 2515.23C2423.58 2537.55 2428.67 2559.54 2432.43 2581.2C2436.48 2602.84 2438.72 2623.61 2439.16 2643.51C2439.58 2663.13 2438.15 2681.31 2434.86 2698.05C2431.29 2714.8 2425.7 2729.7 2418.07 2742.74C2410.73 2755.76 2401.78 2766.59 2391.2 2775.24C2380.93 2784.16 2369.46 2790.71 2356.79 2794.91C2344.41 2799.08 2331.55 2800.83 2318.2 2800.17C2304.83 2799.22 2291.39 2795.67 2277.9 2789.53C2264.4 2783.39 2251.4 2774.46 2238.9 2762.75C2226.38 2750.75 2214.66 2736.22 2203.76 2719.18C2192.83 2701.85 2182.35 2682.89 2172.32 2662.31C2162 2641.76 2152.08 2620.73 2142.55 2599.24C2132.71 2577.49 2122.78 2556.32 2112.75 2535.74C2102.43 2515.19 2091.8 2496.24 2080.88 2478.91C2069.66 2461.6 2057.79 2446.95 2045.27 2434.95C2032.46 2422.97 2018.78 2414.53 2004.22 2409.63C1989.67 2404.73 1974.2 2402.79 1957.8 2403.82C1941.68 2404.53 1924.99 2407.32 1907.75 2412.17C1890.51 2417.02 1873.21 2422.88 1855.84 2429.77C1838.47 2436.65 1821.39 2443.51 1804.6 2450.35C1787.55 2457.5 1771.14 2463.73 1755.38 2469.04C1739.62 2474.35 1724.6 2478.01 1710.31 2480.02C1696.3 2482.01 1683.31 2482.18 1671.33 2480.54C1659.35 2478.9 1648.69 2475.71 1639.35 2470.97C1630.3 2466.21 1622.59 2460.18 1616.22 2452.89C1609.88 2445.88 1605.18 2437.73 1602.12 2428.44C1599.35 2419.13 1598.27 2409.24 1598.88 2398.79C1599.75 2388.03 1602.76 2376.95 1607.92 2365.55C1612.76 2353.89 1619.48 2342.09 1628.05 2330.13C1636.92 2318.14 1647.08 2306.06 1658.53 2293.87C1670 2281.97 1682.2 2270.15 1695.14 2258.42C1708.33 2246.38 1721.85 2234.75 1735.69 2223.53C1749.53 2212.3 1763.12 2201.53 1776.45 2191.21C1790.07 2180.87 1802.89 2171.32 1814.9 2162.55C1826.61 2153.52 1837.35 2145.15 1847.14 2137.43C1856.63 2129.73 1864.85 2122.28 1871.79 2115.08C1878.44 2107.9 1883.5 2100.7 1886.96 2093.49C1890.41 2085.98 1891.94 2078.06 1891.56 2069.71C1891.47 2061.33 1888.98 2052 1884.11 2041.7C1879.53 2031.37 1872.53 2019.79 1863.12 2006.97C1853.4 1993.87 1841.4 1979.37 1827.12 1963.47Z" stroke="black"/>
<g filter="url(#filter7_f_0_1)">
<path fill-rule="evenodd" clip-rule="evenodd" d="M300.157 3434.61C297.551 3456.47 292.974 3478.98 286.429 3502.15C280.3 3525.12 273.186 3548.42 265.088 3572.04C256.799 3595.24 248.528 3617.94 240.274 3640.12C232.021 3662.3 224.788 3683.13 218.576 3702.61C212.251 3722.4 207.684 3740.25 204.875 3756.15C202.066 3772.06 201.111 3786.23 202.009 3798.67C203.211 3811.23 206.002 3822.3 210.381 3831.88C214.647 3841.77 220.427 3850.84 227.722 3859.09C234.904 3867.64 243.335 3875.62 253.016 3883.03C262.584 3890.74 273.118 3898.64 284.62 3906.72C295.818 3914.69 307.567 3923.04 319.866 3931.77C332.278 3940.19 344.216 3948.96 355.682 3958.07C366.958 3966.76 377.153 3975.57 386.269 3984.5C395.497 3993.12 402.528 4001.62 407.359 4009.99C412.19 4018.36 414.273 4026.22 413.606 4033.59C412.94 4040.95 409.164 4047.85 402.28 4054.28C395.699 4060.82 386.919 4067.24 375.941 4073.54C365.379 4079.64 353.985 4086.12 341.757 4092.99C329.529 4099.85 317.891 4107.46 306.841 4115.8C295.791 4124.14 286.601 4133.52 279.27 4143.94C271.94 4154.35 267.227 4166.09 265.132 4179.15C263.038 4192.21 263.067 4206.06 265.221 4220.69C267.375 4235.33 270.4 4249.95 274.297 4264.54C278.081 4279.44 281.485 4293.51 284.507 4306.74C287.946 4319.78 289.639 4331.48 289.585 4341.84C289.948 4352 287.767 4360.19 283.043 4366.39C278.128 4372.17 270.916 4376.23 261.407 4378.57C251.786 4381.22 240.457 4382.88 227.42 4383.57C214.687 4384.37 201.12 4385.54 186.721 4387.11C172.738 4388.47 158.606 4391.17 144.325 4395.2C130.348 4399.34 117.267 4405.71 105.081 4414.32C92.8948 4422.94 81.9077 4433.9 72.1194 4447.2C62.5215 4460.93 53.4949 4475.9 45.0394 4492.13C36.8874 4508.47 28.9258 4525.22 21.1546 4542.4C13.193 4559.15 5.09752 4575.34 -3.13181 4590.96C-11.4742 4606.88 -20.6168 4620.77 -30.5597 4632.64C-40.5027 4644.51 -51.2845 4653.98 -62.9053 4661.08C-74.8297 4668.06 -87.328 4672.4 -100.401 4674.11C-113.473 4675.82 -126.608 4674.91 -139.806 4671.38C-153.003 4667.85 -165.959 4661.82 -178.675 4653.29C-190.974 4644.56 -202.368 4633.4 -212.858 4619.81C-223.348 4606.22 -232.63 4590.32 -240.704 4572.09C-248.475 4553.98 -255.264 4534.16 -261.071 4512.62C-266.991 4491.4 -271.965 4469.48 -275.993 4446.88C-280.438 4424.47 -284.692 4402.48 -288.755 4380.9C-292.706 4359.03 -296.71 4338.68 -300.768 4319.88C-305.129 4300.96 -310.035 4284.43 -315.485 4270.3C-320.935 4256.16 -327.233 4244.3 -334.379 4234.73C-341.335 4225.57 -349.12 4218.17 -357.736 4212.55C-366.655 4206.81 -376.292 4202.53 -386.645 4199.71C-397.189 4196.48 -408.64 4194.3 -420.998 4193.16C-433.244 4191.72 -446.626 4190.54 -461.144 4189.64C-475.359 4188.84 -490.389 4187.92 -506.235 4186.87C-522.08 4185.82 -538.116 4184.35 -554.342 4182.46C-570.264 4180.69 -585.657 4178.42 -600.521 4175.66C-615.384 4172.89 -628.942 4169.41 -641.193 4165.19C-653.748 4160.87 -664.22 4155.59 -672.61 4149.35C-681.416 4143.31 -687.78 4136.27 -691.701 4128.24C-695.925 4120.09 -698.787 4111.07 -700.286 4101.18C-701.673 4090.97 -702.833 4080.16 -703.767 4068.75C-704.588 4057.03 -706.206 4044.66 -708.622 4031.66C-710.734 4018.76 -714.667 4005.19 -720.42 3990.95C-726.287 3977 -734.751 3962.61 -745.812 3947.77C-756.76 3932.63 -769.699 3917.26 -784.627 3901.68C-799.556 3886.09 -815.395 3870.16 -832.145 3853.9C-849.007 3837.94 -865.757 3821.68 -882.393 3805.11C-898.726 3788.65 -913.676 3772.2 -927.242 3755.73C-940.695 3738.97 -951.798 3722.38 -960.551 3705.98C-969.606 3689.46 -975.649 3673.21 -978.677 3657.21C-981.705 3641.2 -982.193 3625.8 -980.14 3611C-977.784 3596.31 -973.056 3582.67 -965.957 3570.1C-958.745 3557.21 -949.332 3545.84 -937.717 3535.98C-925.989 3525.81 -912.173 3517.46 -896.268 3510.93C-880.363 3504.39 -862.825 3499.5 -843.653 3496.26C-824.482 3493.01 -804.266 3490.68 -783.006 3489.25C-762.049 3487.71 -740.789 3486.28 -719.226 3484.96C-697.775 3483.95 -676.762 3482.25 -656.187 3479.88C-635.801 3477.08 -616.859 3473.06 -599.359 3467.81C-581.443 3462.37 -565.407 3455.02 -551.252 3445.76C-537.399 3436.38 -524.838 3425.83 -513.569 3414.12C-502.299 3402.4 -491.788 3390.4 -482.035 3378.11C-472.586 3365.71 -463.116 3354.19 -453.625 3343.54C-444.325 3332.47 -434.68 3323.26 -424.689 3315.91C-414.586 3308.25 -403.643 3302.98 -391.862 3300.1C-379.89 3297.64 -366.91 3297.11 -352.921 3298.51C-338.819 3299.6 -323.938 3301.85 -308.277 3305.26C-292.616 3308.66 -276.292 3312.14 -259.304 3315.7C-242.316 3319.25 -224.933 3321.74 -207.154 3323.17C-189.184 3325.01 -170.935 3324.71 -152.406 3322.26C-133.99 3320.12 -115.351 3315.99 -96.4892 3309.86C-77.7401 3304.04 -59.107 3297.13 -40.5899 3289.15C-21.7694 3281.28 -3.1006 3273.35 15.4166 3265.36C34.124 3257.79 52.5489 3250.99 70.6911 3244.94C88.4167 3239.08 105.976 3235.06 123.368 3232.88C140.761 3230.71 157.495 3231.23 173.573 3234.44C189.763 3237.35 205.049 3242.69 219.431 3250.47C233.509 3258.13 246.075 3267.99 257.131 3280.06C268.299 3291.83 277.501 3305.63 284.736 3321.46C292.388 3337.11 297.466 3354.57 299.97 3373.83C302.588 3392.79 302.65 3413.05 300.157 3434.61Z" fill="#7B61FF"/>
<path fill-rule="evenodd" clip-rule="evenodd" d="M300.157 3434.61C297.551 3456.47 292.974 3478.98 286.429 3502.15C280.3 3525.12 273.186 3548.42 265.088 3572.04C256.799 3595.24 248.528 3617.94 240.274 3640.12C232.021 3662.3 224.788 3683.13 218.576 3702.61C212.251 3722.4 207.684 3740.25 204.875 3756.15C202.066 3772.06 201.111 3786.23 202.009 3798.67C203.211 3811.23 206.002 3822.3 210.381 3831.88C214.647 3841.77 220.427 3850.84 227.722 3859.09C234.904 3867.64 243.335 3875.62 253.016 3883.03C262.584 3890.74 273.118 3898.64 284.62 3906.72C295.818 3914.69 307.567 3923.04 319.866 3931.77C332.278 3940.19 344.216 3948.96 355.682 3958.07C366.958 3966.76 377.153 3975.57 386.269 3984.5C395.497 3993.12 402.528 4001.62 407.359 4009.99C412.19 4018.36 414.273 4026.22 413.606 4033.59C412.94 4040.95 409.164 4047.85 402.28 4054.28C395.699 4060.82 386.919 4067.24 375.941 4073.54C365.379 4079.64 353.985 4086.12 341.757 4092.99C329.529 4099.85 317.891 4107.46 306.841 4115.8C295.791 4124.14 286.601 4133.52 279.27 4143.94C271.94 4154.35 267.227 4166.09 265.132 4179.15C263.038 4192.21 263.067 4206.06 265.221 4220.69C267.375 4235.33 270.4 4249.95 274.297 4264.54C278.081 4279.44 281.485 4293.51 284.507 4306.74C287.946 4319.78 289.639 4331.48 289.585 4341.84C289.948 4352 287.767 4360.19 283.043 4366.39C278.128 4372.17 270.916 4376.23 261.407 4378.57C251.786 4381.22 240.457 4382.88 227.42 4383.57C214.687 4384.37 201.12 4385.54 186.721 4387.11C172.738 4388.47 158.606 4391.17 144.325 4395.2C130.348 4399.34 117.267 4405.71 105.081 4414.32C92.8948 4422.94 81.9077 4433.9 72.1194 4447.2C62.5215 4460.93 53.4949 4475.9 45.0394 4492.13C36.8874 4508.47 28.9258 4525.22 21.1546 4542.4C13.193 4559.15 5.09752 4575.34 -3.13181 4590.96C-11.4742 4606.88 -20.6168 4620.77 -30.5597 4632.64C-40.5027 4644.51 -51.2845 4653.98 -62.9053 4661.08C-74.8297 4668.06 -87.328 4672.4 -100.401 4674.11C-113.473 4675.82 -126.608 4674.91 -139.806 4671.38C-153.003 4667.85 -165.959 4661.82 -178.675 4653.29C-190.974 4644.56 -202.368 4633.4 -212.858 4619.81C-223.348 4606.22 -232.63 4590.32 -240.704 4572.09C-248.475 4553.98 -255.264 4534.16 -261.071 4512.62C-266.991 4491.4 -271.965 4469.48 -275.993 4446.88C-280.438 4424.47 -284.692 4402.48 -288.755 4380.9C-292.706 4359.03 -296.71 4338.68 -300.768 4319.88C-305.129 4300.96 -310.035 4284.43 -315.485 4270.3C-320.935 4256.16 -327.233 4244.3 -334.379 4234.73C-341.335 4225.57 -349.12 4218.17 -357.736 4212.55C-366.655 4206.81 -376.292 4202.53 -386.645 4199.71C-397.189 4196.48 -408.64 4194.3 -420.998 4193.16C-433.244 4191.72 -446.626 4190.54 -461.144 4189.64C-475.359 4188.84 -490.389 4187.92 -506.235 4186.87C-522.08 4185.82 -538.116 4184.35 -554.342 4182.46C-570.264 4180.69 -585.657 4178.42 -600.521 4175.66C-615.384 4172.89 -628.942 4169.41 -641.193 4165.19C-653.748 4160.87 -664.22 4155.59 -672.61 4149.35C-681.416 4143.31 -687.78 4136.27 -691.701 4128.24C-695.925 4120.09 -698.787 4111.07 -700.286 4101.18C-701.673 4090.97 -702.833 4080.16 -703.767 4068.75C-704.588 4057.03 -706.206 4044.66 -708.622 4031.66C-710.734 4018.76 -714.667 4005.19 -720.42 3990.95C-726.287 3977 -734.751 3962.61 -745.812 3947.77C-756.76 3932.63 -769.699 3917.26 -784.627 3901.68C-799.556 3886.09 -815.395 3870.16 -832.145 3853.9C-849.007 3837.94 -865.757 3821.68 -882.393 3805.11C-898.726 3788.65 -913.676 3772.2 -927.242 3755.73C-940.695 3738.97 -951.798 3722.38 -960.551 3705.98C-969.606 3689.46 -975.649 3673.21 -978.677 3657.21C-981.705 3641.2 -982.193 3625.8 -980.14 3611C-977.784 3596.31 -973.056 3582.67 -965.957 3570.1C-958.745 3557.21 -949.332 3545.84 -937.717 3535.98C-925.989 3525.81 -912.173 3517.46 -896.268 3510.93C-880.363 3504.39 -862.825 3499.5 -843.653 3496.26C-824.482 3493.01 -804.266 3490.68 -783.006 3489.25C-762.049 3487.71 -740.789 3486.28 -719.226 3484.96C-697.775 3483.95 -676.762 3482.25 -656.187 3479.88C-635.801 3477.08 -616.859 3473.06 -599.359 3467.81C-581.443 3462.37 -565.407 3455.02 -551.252 3445.76C-537.399 3436.38 -524.838 3425.83 -513.569 3414.12C-502.299 3402.4 -491.788 3390.4 -482.035 3378.11C-472.586 3365.71 -463.116 3354.19 -453.625 3343.54C-444.325 3332.47 -434.68 3323.26 -424.689 3315.91C-414.586 3308.25 -403.643 3302.98 -391.862 3300.1C-379.89 3297.64 -366.91 3297.11 -352.921 3298.51C-338.819 3299.6 -323.938 3301.85 -308.277 3305.26C-292.616 3308.66 -276.292 3312.14 -259.304 3315.7C-242.316 3319.25 -224.933 3321.74 -207.154 3323.17C-189.184 3325.01 -170.935 3324.71 -152.406 3322.26C-133.99 3320.12 -115.351 3315.99 -96.4892 3309.86C-77.7401 3304.04 -59.107 3297.13 -40.5899 3289.15C-21.7694 3281.28 -3.1006 3273.35 15.4166 3265.36C34.124 3257.79 52.5489 3250.99 70.6911 3244.94C88.4167 3239.08 105.976 3235.06 123.368 3232.88C140.761 3230.71 157.495 3231.23 173.573 3234.44C189.763 3237.35 205.049 3242.69 219.431 3250.47C233.509 3258.13 246.075 3267.99 257.131 3280.06C268.299 3291.83 277.501 3305.63 284.736 3321.46C292.388 3337.11 297.466 3354.57 299.97 3373.83C302.588 3392.79 302.65 3413.05 300.157 3434.61Z" stroke="black"/>
</g>
<path fill-rule="evenodd" clip-rule="evenodd" d="M123.684 2630.06C111.907 2639.7 100.527 2649.87 89.5452 2660.58C78.563 2671.29 67.857 2682.02 57.4272 2692.78C46.9165 2703.19 36.7068 2713.36 26.7981 2723.27C16.6783 2733.06 6.52733 2741.95 -3.65498 2749.94C-13.9676 2758.15 -24.3271 2765.02 -34.7335 2770.54C-45.3509 2775.94 -56.1611 2779.76 -67.1641 2782C-78.3782 2784.12 -89.8255 2784.48 -101.506 2783.1C-112.975 2781.85 -124.573 2778.92 -136.297 2774.3C-147.941 2770.03 -159.291 2764.34 -170.346 2757.22C-181.612 2749.97 -192.438 2741.54 -202.823 2731.93C-213.339 2722.52 -223.244 2711.89 -232.538 2700.03C-241.621 2688.3 -249.906 2675.76 -257.394 2662.39C-264.883 2649.02 -271.639 2634.94 -277.662 2620.15C-283.606 2605.7 -288.907 2590.91 -293.565 2575.79C-298.435 2560.55 -302.882 2545.56 -306.908 2530.83C-311.144 2515.98 -315.26 2501.63 -319.254 2487.8C-323.248 2473.97 -327.382 2461.07 -331.655 2449.1C-336.139 2437.01 -340.852 2426.23 -345.795 2416.77C-350.948 2407.17 -356.673 2398.98 -362.968 2392.18C-369.604 2385.46 -376.786 2379.86 -384.514 2375.38C-392.372 2371.11 -400.922 2367.73 -410.164 2365.23C-419.747 2362.81 -430.273 2360.98 -441.742 2359.73C-452.87 2358.39 -465.153 2357.52 -478.589 2357.09C-492.026 2356.67 -506.527 2356.31 -522.092 2356.03C-537.657 2355.75 -554.327 2355.37 -572.102 2354.89C-589.877 2354.41 -608.114 2353.5 -626.814 2352.16C-645.644 2351.03 -664.213 2349.48 -682.522 2347.5C-700.831 2345.53 -718.196 2342.97 -734.619 2339.82C-750.911 2336.47 -765.537 2332.54 -778.497 2328.04C-791.668 2323.41 -802.254 2317.89 -810.255 2311.5C-818.387 2305.31 -823.528 2298.06 -825.677 2289.74C-827.616 2281.54 -826.905 2272.37 -823.543 2262.2C-820.102 2252.37 -814.798 2241.66 -807.633 2230.05C-800.257 2218.57 -791.726 2206.64 -782.042 2194.26C-772.438 2181.53 -762.427 2168.62 -752.011 2155.52C-741.674 2142.08 -731.785 2128.66 -722.343 2115.25C-712.77 2101.63 -704.473 2087.96 -697.451 2074.22C-690.349 2060.83 -684.586 2047.48 -680.165 2034.18C-675.532 2021.01 -671.778 2008.31 -668.901 1996.1C-666.025 1983.88 -663.223 1972.5 -660.495 1961.94C-657.978 1951.25 -655.153 1941.48 -652.021 1932.63C-648.809 1924.12 -644.591 1916.82 -639.367 1910.71C-634.354 1904.48 -627.702 1899.84 -619.411 1896.8C-611.331 1893.63 -601.548 1891.94 -590.06 1891.75C-578.361 1891.68 -565.527 1892.61 -551.556 1894.53C-537.585 1896.45 -523.087 1898.7 -508.061 1901.27C-492.694 1903.76 -477.367 1906.08 -462.08 1908.23C-446.794 1910.38 -431.985 1911.65 -417.655 1912.04C-403.325 1912.44 -390.146 1911.39 -378.119 1908.91C-365.751 1906.34 -355.062 1902.01 -346.052 1895.91C-336.912 1889.6 -329.094 1881.9 -322.599 1872.79C-315.892 1863.81 -310.216 1853.91 -305.57 1843.08C-300.925 1832.25 -296.701 1821.16 -292.9 1809.8C-289.229 1798.66 -285.753 1787.84 -282.472 1777.33C-279.062 1766.61 -275.409 1756.92 -271.514 1748.25C-267.96 1739.66 -263.701 1732.52 -258.738 1726.84C-253.774 1721.16 -248.041 1716.83 -241.537 1713.85C-235.375 1710.95 -228.459 1708.95 -220.788 1707.86C-213.118 1706.76 -204.92 1706 -196.194 1705.55C-187.257 1705.24 -177.703 1704.87 -167.531 1704.45C-157.489 1704.23 -146.78 1703.41 -135.405 1701.98C-124.371 1700.63 -112.644 1698.4 -100.227 1695.28C-88.0198 1692.03 -75.3323 1687.77 -62.1641 1682.49C-49.1262 1677.42 -35.8928 1672.03 -22.4641 1666.33C-9.24634 1660.5 3.90624 1654.78 16.9937 1649.16C29.9509 1643.75 42.5172 1638.97 54.6927 1634.83C66.6572 1630.56 77.9455 1627.62 88.5577 1626.01C99.1699 1624.4 108.845 1624.54 117.584 1626.44C126.193 1628.54 133.629 1632.55 139.893 1638.46C146.287 1644.15 151.849 1651.67 156.581 1661C161.232 1669.99 165.377 1680.27 169.017 1691.85C172.576 1703.08 175.785 1715.12 178.643 1727.96C181.842 1740.72 184.912 1753.69 187.851 1766.87C191.131 1779.97 194.607 1792.75 198.278 1805.22C202.03 1818.03 206.408 1830.06 211.413 1841.31C216.077 1852.64 221.067 1863.44 226.382 1873.72C231.486 1883.86 236.575 1893.56 241.648 1902.82C246.509 1911.94 250.884 1920.9 254.771 1929.72C258.789 1938.32 261.767 1946.71 263.706 1954.9C265.725 1963.44 266.428 1971.74 265.816 1979.82C265.285 1988.23 262.966 1996.71 258.859 2005.25C255.094 2013.71 250.029 2022.39 243.664 2031.28C237.169 2040.39 230.096 2049.72 222.446 2059.28C215.007 2068.97 207.649 2079 200.372 2089.38C193.225 2099.54 186.963 2110.39 181.585 2121.93C176.207 2133.48 172.462 2145.45 170.349 2157.84C168.106 2170.45 168.193 2183.76 170.611 2197.79C173.159 2211.6 177.827 2226 184.614 2240.97C191.612 2256.08 199.926 2271.41 209.556 2286.97C219.186 2302.54 229.263 2318.08 239.787 2333.61C250.441 2348.93 260.502 2364.03 269.97 2378.91C279.78 2393.71 288.258 2407.84 295.405 2421.28C302.552 2434.73 307.498 2447.26 310.244 2458.86C312.91 2470.13 313.034 2480.55 310.616 2490.13C307.987 2499.58 303.263 2508.18 296.444 2515.92C289.707 2524 281.296 2531.49 271.213 2538.38C261.129 2545.27 250.047 2552.13 237.965 2558.96C225.883 2565.78 213.29 2572.72 200.184 2579.79C187.078 2586.86 174.029 2594.54 161.035 2602.84C148.041 2611.14 135.591 2620.22 123.684 2630.06Z" stroke="black"/>
<path d="M228.665 946.678C215.687 954.515 196.849 951.536 173.726 939.107C150.636 926.696 123.438 904.946 93.8798 875.573C34.7695 816.831 -33.695 727.68 -97.4914 622.043C-161.288 516.405 -208.319 414.311 -232.792 334.651C-245.03 294.817 -251.617 260.621 -251.853 234.408C-252.09 208.157 -245.957 190.098 -232.979 182.26C-220.002 174.423 -201.164 177.402 -178.04 189.831C-154.951 202.242 -127.752 223.991 -98.1943 253.365C-39.084 312.107 29.3805 401.257 93.1769 506.895C156.973 612.533 204.005 714.627 228.478 794.287C240.715 834.121 247.303 868.317 247.539 894.53C247.775 920.781 241.642 938.84 228.665 946.678Z" stroke="black"/>
<path d="M1747.31 3338.24C1761.94 3334.28 1779.23 3342.33 1798.04 3360.65C1816.81 3378.95 1836.96 3407.35 1857.28 3443.73C1897.92 3516.48 1939.17 3621.05 1971.39 3740.18C2003.61 3859.3 2020.68 3970.41 2022.26 4053.72C2023.05 4095.39 2019.96 4130.08 2012.96 4155.34C2005.96 4180.64 1995.08 4196.31 1980.45 4200.27C1965.81 4204.22 1948.53 4196.17 1929.72 4177.85C1910.95 4159.56 1890.79 4131.16 1870.47 4094.78C1829.84 4022.02 1788.59 3917.46 1756.37 3798.33C1724.15 3679.2 1707.07 3568.1 1705.5 3484.78C1704.71 3443.12 1707.8 3408.43 1714.8 3383.17C1721.8 3357.87 1732.68 3342.2 1747.31 3338.24Z" stroke="black"/>
<path d="M368.483 886.872C361.16 896.798 345.634 900.142 323.519 897.417C301.45 894.698 273.02 885.957 240.164 872C174.461 844.088 91.1635 795.358 5.85635 732.421C-79.4508 669.483 -150.59 604.274 -196.646 549.732C-219.677 522.458 -236.417 497.873 -245.527 477.589C-254.657 457.262 -256.043 441.441 -248.72 431.515C-241.396 421.588 -225.871 418.245 -203.755 420.97C-181.686 423.689 -153.256 432.429 -120.401 446.386C-54.6971 474.298 28.6 523.028 113.907 585.966C199.214 648.903 270.353 714.112 316.41 768.655C339.441 795.929 356.181 820.514 365.291 840.798C374.42 861.125 375.807 876.945 368.483 886.872Z" stroke="black"/>
<path d="M1596.43 3357.2C1606.2 3349.68 1622.05 3350.74 1642.55 3359.45C1663.02 3368.15 1687.94 3384.39 1715.68 3406.86C1771.15 3451.79 1837.79 3521.59 1902.46 3605.59C1967.12 3689.6 2017.53 3771.89 2046.78 3837.01C2061.4 3869.58 2070.72 3897.82 2073.89 3919.83C2077.06 3941.89 2074.04 3957.48 2064.26 3965C2054.49 3972.52 2038.64 3971.46 2018.13 3962.75C1997.67 3954.05 1972.75 3937.82 1945.01 3915.35C1889.54 3870.41 1822.89 3800.61 1758.23 3716.61C1693.57 3632.6 1643.15 3550.31 1613.91 3485.19C1599.28 3452.63 1589.97 3424.38 1586.8 3402.37C1583.62 3380.32 1586.65 3364.73 1596.43 3357.2Z" stroke="black"/>
<rect x="2132.51" y="901.069" width="476" height="502" transform="rotate(94.7997 2132.51 901.069)" stroke="black"/>
<rect x="2050.72" y="921.054" width="476" height="502" transform="rotate(73.5883 2050.72 921.054)" stroke="black"/>
<rect x="1874.45" y="713.044" width="476" height="502" transform="rotate(30.3279 1874.45 713.044)" stroke="black"/>
<rect x="-125.665" y="3941.17" width="476" height="502" transform="rotate(-98.3409 -125.665 3941.17)" stroke="black"/>
<rect x="-50.5582" y="3903.11" width="476" height="502" transform="rotate(-119.552 -50.5582 3903.11)" stroke="black"/>
<rect x="168.382" y="4065.6" width="476" height="502" transform="rotate(-162.813 168.382 4065.6)" stroke="black"/>
<defs>
<filter id="filter0_f_0_1" x="1109.5" y="-276.5" width="1567" height="1567" filterUnits="userSpaceOnUse" color-interpolation-filters="sRGB">
<feFlood flood-opacity="0" result="BackgroundImageFix"/>
<feBlend mode="normal" in="SourceGraphic" in2="BackgroundImageFix" result="shape"/>
<feGaussianBlur stdDeviation="200" result="effect1_foregroundBlur_0_1"/>
</filter>
<filter id="filter1_f_0_1" x="-677" y="1700" width="1816" height="1816" filterUnits="userSpaceOnUse" color-interpolation-filters="sRGB">
<feFlood flood-opacity="0" result="BackgroundImageFix"/>
<feBlend mode="normal" in="SourceGraphic" in2="BackgroundImageFix" result="shape"/>
<feGaussianBlur stdDeviation="175" result="effect1_foregroundBlur_0_1"/>
</filter>
<filter id="filter2_f_0_1" x="912" y="2522" width="1816" height="1816" filterUnits="userSpaceOnUse" color-interpolation-filters="sRGB">
<feFlood flood-opacity="0" result="BackgroundImageFix"/>
<feBlend mode="normal" in="SourceGraphic" in2="BackgroundImageFix" result="shape"/>
<feGaussianBlur stdDeviation="175" result="effect1_foregroundBlur_0_1"/>
</filter>
<filter id="filter3_f_0_1" x="-654.031" y="-1251.3" width="1789.26" height="2131.55" filterUnits="userSpaceOnUse" color-interpolation-filters="sRGB">
<feFlood flood-opacity="0" result="BackgroundImageFix"/>
<feBlend mode="normal" in="SourceGraphic" in2="BackgroundImageFix" result="shape"/>
<feGaussianBlur stdDeviation="150" result="effect1_foregroundBlur_0_1"/>
</filter>
<filter id="filter4_f_0_1" x="1294.69" y="914.678" width="1765.84" height="1924.84" filterUnits="userSpaceOnUse" color-interpolation-filters="sRGB">
<feFlood flood-opacity="0" result="BackgroundImageFix"/>
<feBlend mode="normal" in="SourceGraphic" in2="BackgroundImageFix" result="shape"/>
<feGaussianBlur stdDeviation="125" result="effect1_foregroundBlur_0_1"/>
</filter>
<filter id="filter5_f_0_1" x="-858.612" y="648.142" width="1652.86" height="1538.08" filterUnits="userSpaceOnUse" color-interpolation-filters="sRGB">
<feFlood flood-opacity="0" result="BackgroundImageFix"/>
<feBlend mode="normal" in="SourceGraphic" in2="BackgroundImageFix" result="shape"/>
<feGaussianBlur stdDeviation="100" result="effect1_foregroundBlur_0_1"/>
</filter>
<filter id="filter7_f_0_1" x="-1231.88" y="2981.07" width="1896.11" height="1944.38" filterUnits="userSpaceOnUse" color-interpolation-filters="sRGB">
<feFlood flood-opacity="0" result="BackgroundImageFix"/>
<feBlend mode="normal" in="SourceGraphic" in2="BackgroundImageFix" result="shape"/>
<feGaussianBlur stdDeviation="125" result="effect1_foregroundBlur_0_1"/>
</filter>
</defs>
</svg>

