<svg  viewBox="0 0 946 535" fill="none" xmlns="http://www.w3.org/2000/svg">
<path d="M868.495 444.634C862.705 458.645 845.777 467.432 819.79 471.158C793.842 474.879 759.044 473.525 717.82 467.436C635.38 455.26 527.359 424.167 413.307 377.035C299.254 329.904 200.796 275.671 133.81 226.098C100.314 201.309 74.7108 177.703 58.959 156.75C43.184 135.766 37.3974 117.592 43.1874 103.581C48.9774 89.5699 65.9051 80.7831 91.8915 77.0568C117.84 73.3359 152.638 74.6901 193.862 80.7788C276.302 92.9551 384.323 124.048 498.375 171.179C612.428 218.311 710.886 272.544 777.872 322.117C811.368 346.906 836.971 370.512 852.723 391.465C868.498 412.449 874.285 430.623 868.495 444.634Z" stroke="black"/>
<path d="M945.5 313.5C945.5 325.836 934.992 337.743 915.578 348.68C896.205 359.594 868.138 369.44 833.413 377.714C763.971 394.261 668.012 404.5 562 404.5C455.988 404.5 360.029 394.261 290.587 377.714C255.862 369.44 227.795 359.594 208.422 348.68C189.008 337.743 178.5 325.836 178.5 313.5C178.5 301.164 189.008 289.257 208.422 278.32C227.795 267.406 255.862 257.56 290.587 249.286C360.029 232.739 455.988 222.5 562 222.5C668.012 222.5 763.971 232.739 833.413 249.286C868.138 257.56 896.205 267.406 915.578 278.32C934.992 289.257 945.5 301.164 945.5 313.5Z" stroke="black"/>
</svg>
