<svg class="background" viewBox="0 0 1920 3280" fill="none" xmlns="http://www.w3.org/2000/svg">
<g filter="url(#filter0_f_0_1)">
<path fill-rule="evenodd" clip-rule="evenodd" d="M1424.84 103.703C1449.2 18.906 1588.84 45.2719 1660.97 -5.54541C1782.37 -91.0826 1843.42 -270.832 1990.02 -294.52C2130.34 -317.192 2304.16 -245.619 2371.26 -120.311C2442.47 12.6908 2282.39 175.484 2319.92 321.61C2356.64 464.587 2675.97 566.185 2575.29 674.141C2440.97 818.168 2155.5 557.004 1994.55 670.502C1873.36 755.971 2056.03 991.917 1962.03 1106.62C1885.9 1199.5 1720.16 1186.95 1609.5 1140.31C1499.7 1094.04 1409.58 983.258 1390.32 865.666C1371.31 749.565 1474.31 652.194 1511.28 540.507C1526.59 494.266 1553.7 448.485 1544.24 400.702C1523.17 294.218 1394.86 208.032 1424.84 103.703Z" fill="#819EE8"/>
</g>
<path fill-rule="evenodd" clip-rule="evenodd" d="M1498.55 66.9934C1471.34 17.6873 1546.34 -33.3403 1556.03 -88.8172C1572.33 -182.198 1518.9 -290.954 1574.48 -367.744C1627.68 -441.242 1738.5 -487.247 1825.31 -460.858C1917.44 -432.85 1918.48 -287.119 2001.31 -237.994C2082.35 -189.928 2272.47 -287.951 2275.63 -193.779C2279.84 -68.142 2033.1 -57.4913 2011.52 66.351C1995.28 159.609 2184.19 183.9 2193.41 278.113C2200.87 354.404 2120.31 423.443 2049.27 452.247C1978.79 480.828 1888.13 471.384 1826.42 426.919C1765.49 383.017 1768.15 292.582 1734.52 225.44C1720.59 197.642 1712.2 164.732 1686.39 147.4C1628.87 108.773 1532.03 127.656 1498.55 66.9934Z" stroke="black"/>
<g filter="url(#filter1_f_0_1)">
<path fill-rule="evenodd" clip-rule="evenodd" d="M3035.36 2833.08C2961.2 2998 2698.97 2938.47 2524.47 2985.89C2411.37 3016.63 2296.17 3019.1 2187.68 3063.43C2026.59 3129.25 1878.46 3408.47 1736.49 3307.85C1576.44 3194.42 1763.26 2920.28 1716.78 2729.69C1693.49 2634.2 1543.54 2598.55 1539.56 2500.35C1535.52 2400.91 1684.42 2351.61 1697.42 2252.94C1718.35 2094.13 1564.76 1929.38 1633.86 1784.86C1697.24 1652.29 1872.88 1609.32 2017.53 1583.42C2166.65 1556.72 2384.4 1506.1 2461.08 1636.77C2562.97 1810.39 2307.35 2045.52 2395.04 2226.74C2458.94 2358.8 2701.85 2253.6 2808.38 2354.47C2938.8 2477.98 3109.02 2669.25 3035.36 2833.08Z" fill="#FFF382"/>
</g>
<path fill-rule="evenodd" clip-rule="evenodd" d="M2932.84 2820.83C2872.37 2955.31 2658.55 2906.77 2516.25 2945.44C2424.03 2970.5 2330.09 2972.52 2241.63 3008.66C2110.27 3062.33 1989.48 3290.02 1873.72 3207.97C1743.21 3115.47 1895.55 2891.94 1857.65 2736.53C1838.66 2658.66 1716.38 2629.59 1713.13 2549.51C1709.84 2468.43 1831.25 2428.23 1841.86 2347.77C1858.93 2218.27 1733.69 2083.93 1790.03 1966.09C1841.71 1857.98 1984.93 1822.95 2102.88 1801.83C2224.48 1780.06 2402.04 1738.78 2464.56 1845.33C2547.65 1986.91 2339.21 2178.64 2410.71 2326.4C2462.82 2434.09 2660.89 2348.31 2747.76 2430.56C2854.11 2531.28 2992.91 2687.24 2932.84 2820.83Z" stroke="black"/>
<g filter="url(#filter2_f_0_1)">
<path fill-rule="evenodd" clip-rule="evenodd" d="M120.903 2955.97C172.148 3048.61 379.571 2957.77 416.286 3057.08C454.777 3161.18 287.824 3238.93 265.741 3347.71C247.769 3436.23 332.683 3525.78 303.759 3611.35C273.751 3700.13 201.55 3788.31 110.019 3808.43C16.4837 3828.98 -60.5541 3724.7 -155.51 3712.27C-242.687 3700.85 -336.395 3782.53 -413.301 3739.92C-488.947 3698.01 -464.198 3573.55 -521.989 3509.21C-612.792 3408.13 -780.719 3387.51 -839.777 3265.14C-904.967 3130.05 -928.103 2952.93 -853.133 2823.02C-778.507 2693.7 -584.853 2704.28 -464.855 2615.45C-308.33 2499.57 -212.741 2126.39 -44.372 2224.27C175.544 2352.12 -2.22284 2733.37 120.903 2955.97Z" fill="#7B61FF"/>
</g>
<path fill-rule="evenodd" clip-rule="evenodd" d="M120.903 2955.97C172.148 3048.61 379.571 2957.77 416.286 3057.08C454.777 3161.18 287.824 3238.93 265.741 3347.71C247.769 3436.23 332.683 3525.78 303.758 3611.35C273.751 3700.13 201.55 3788.31 110.019 3808.43C16.4837 3828.98 -60.5541 3724.7 -155.51 3712.27C-242.687 3700.85 -336.395 3782.53 -413.301 3739.92C-488.947 3698.01 -464.198 3573.55 -521.989 3509.21C-612.792 3408.13 -780.719 3387.51 -839.777 3265.14C-904.967 3130.05 -928.103 2952.93 -853.133 2823.02C-778.507 2693.7 -584.853 2704.28 -464.855 2615.45C-308.33 2499.57 -212.741 2126.39 -44.372 2224.27C175.544 2352.12 -2.22286 2733.37 120.903 2955.97Z" stroke="black"/>
<g filter="url(#filter3_f_0_1)">
<path fill-rule="evenodd" clip-rule="evenodd" d="M-367.481 615.213C-243.092 554.237 -260.854 341.88 -142.384 270.076C-55.0141 217.12 74.9304 239.35 160.461 295.228C244.685 350.253 263.121 466.252 300.723 559.567C334.822 644.187 357.487 731.287 372.442 821.286C387.185 910.009 430.662 1008.83 388.587 1088.32C342.604 1175.19 172.874 1156.1 145.286 1250.45C104.411 1390.22 356.747 1639.57 216.215 1677.78C39.1485 1725.92 -42.3679 1303.8 -220.014 1349.76C-391.277 1394.06 -248.522 1770.17 -411.038 1840.05C-528.055 1890.36 -563.502 1635.98 -609.001 1517.01C-642.511 1429.39 -561.035 1289.45 -640.609 1239.76C-758.093 1166.4 -935.457 1313.93 -1052.59 1240.02C-1132.31 1189.71 -1124.54 1045.35 -1082.08 961.192C-1032.87 863.619 -846.872 878.151 -817.027 773.022C-783.104 653.526 -1008.25 516.199 -928.679 420.815C-851.165 327.899 -688.272 442.019 -573.935 481.625C-495.817 508.685 -441.714 651.603 -367.481 615.213Z" fill="#B2F998"/>
</g>
<path d="M-281.55 2132.16C-291.317 2120.56 -291.314 2101.49 -282.645 2076.71C-273.989 2051.97 -256.751 2021.71 -232.349 1987.93C-183.551 1920.38 -106.176 1838.84 -11.7875 1759.34C82.601 1679.84 176.106 1617.46 250.971 1580.85C288.407 1562.55 321.157 1550.7 347.011 1546.38C372.904 1542.05 391.699 1545.29 401.465 1556.89C411.232 1568.48 411.229 1587.55 402.56 1612.33C393.904 1637.08 376.666 1667.34 352.264 1701.12C303.466 1768.67 226.091 1850.21 131.702 1929.71C37.3139 2009.2 -56.1909 2071.59 -131.056 2108.19C-168.492 2126.5 -201.242 2138.34 -227.096 2142.66C-252.989 2146.99 -271.784 2143.75 -281.55 2132.16Z" stroke="black"/>
<path d="M-200.659 2260.93C-211.607 2255.25 -217.332 2240.43 -218.092 2218.16C-218.85 2195.94 -214.653 2166.5 -205.993 2131.86C-188.676 2062.61 -153.541 1972.73 -104.686 1878.65C-55.8313 1784.56 -2.52181 1704.12 44.1653 1650.12C67.5115 1623.11 89.1832 1602.74 107.797 1590.58C126.45 1578.39 141.861 1574.55 152.808 1580.23C163.756 1585.92 169.481 1600.73 170.241 1623C170.999 1645.23 166.802 1674.67 158.142 1709.3C140.825 1778.56 105.69 1868.44 56.8355 1962.52C7.98067 2056.6 -45.3288 2137.05 -92.0159 2191.05C-115.362 2218.05 -137.034 2238.43 -155.648 2250.59C-174.301 2262.78 -189.711 2266.62 -200.659 2260.93Z" stroke="black"/>
<g filter="url(#filter4_f_0_1)">
<path fill-rule="evenodd" clip-rule="evenodd" d="M793.026 -307.695C835.617 -298.837 866.047 -262.914 899.573 -235.185C934.322 -206.444 972.789 -180.688 994.431 -141.113C1016.98 -99.8834 1019.97 -52.0396 1025.27 -5.33507C1031.34 48.0798 1077.32 132.75 1027.92 153.902C952.621 186.141 868.981 64.0942 792.805 94.1968C739.037 115.444 793.413 217.628 755.703 261.475C722.45 300.138 659.245 322.37 611.205 305.351C562.354 288.044 539.126 228.699 523.57 179.235C510.185 136.676 546.216 88.7706 530.017 47.2035C514.141 6.4617 435.658 0.819254 437.007 -42.896C438.33 -85.7942 510.994 -88.1401 535.284 -123.523C556.63 -154.618 542.037 -201.881 566.089 -230.931C590.708 -260.667 631.106 -271.05 667.662 -283.416C708.497 -297.229 750.83 -316.47 793.026 -307.695Z" fill="#F55C8B"/>
</g>
<circle cx="1894.07" cy="955.758" r="64.7605" transform="rotate(-62.0441 1894.07 955.758)" stroke="black"/>
<circle cx="1758.87" cy="1359.2" r="18.7815" transform="rotate(-62.0441 1758.87 1359.2)" stroke="black"/>
<circle cx="1888.54" cy="1238.27" r="76.6261" transform="rotate(-62.0441 1888.54 1238.27)" stroke="black"/>
<circle cx="2004.05" cy="634.64" r="91.458" transform="rotate(-62.0441 2004.05 634.64)" stroke="black"/>
<path d="M1817.51 1394.25C1823.78 1397.57 1826.17 1405.35 1822.84 1411.62C1819.51 1417.89 1811.73 1420.27 1805.47 1416.95C1799.2 1413.62 1796.81 1405.84 1800.14 1399.57C1803.47 1393.3 1811.25 1390.92 1817.51 1394.25Z" stroke="black"/>
<circle cx="1854.49" cy="1356.21" r="12.8487" transform="rotate(-62.0441 1854.49 1356.21)" stroke="black"/>
<circle cx="1912.59" cy="794.313" r="38.063" transform="rotate(-62.0441 1912.59 794.313)" stroke="black"/>
<circle cx="1754.36" cy="1244.31" r="38.063" transform="rotate(-62.0441 1754.36 1244.31)" stroke="black"/>
<circle cx="1868.95" cy="1088.51" r="18.7815" transform="rotate(-62.0441 1868.95 1088.51)" stroke="black"/>
<rect x="-12.8413" y="1253.17" width="417.983" height="440.82" transform="rotate(-102.342 -12.8413 1253.17)" stroke="black"/>
<rect x="50.6079" y="1215.21" width="417.982" height="440.82" transform="rotate(-123.554 50.6079 1215.21)" stroke="black"/>
<rect x="252.347" y="1344.18" width="417.982" height="440.82" transform="rotate(-166.814 252.347 1344.18)" stroke="black"/>
<defs>
<filter id="filter0_f_0_1" x="588.002" y="-1098.68" width="2806.83" height="3074.77" filterUnits="userSpaceOnUse" color-interpolation-filters="sRGB">
<feFlood flood-opacity="0" result="BackgroundImageFix"/>
<feBlend mode="normal" in="SourceGraphic" in2="BackgroundImageFix" result="shape"/>
<feGaussianBlur stdDeviation="400" result="effect1_foregroundBlur_0_1"/>
</filter>
<filter id="filter1_f_0_1" x="1189.47" y="1201.08" width="2213.7" height="2478.42" filterUnits="userSpaceOnUse" color-interpolation-filters="sRGB">
<feFlood flood-opacity="0" result="BackgroundImageFix"/>
<feBlend mode="normal" in="SourceGraphic" in2="BackgroundImageFix" result="shape"/>
<feGaussianBlur stdDeviation="175" result="effect1_foregroundBlur_0_1"/>
</filter>
<filter id="filter2_f_0_1" x="-1249.89" y="1858.08" width="2021.92" height="2303.01" filterUnits="userSpaceOnUse" color-interpolation-filters="sRGB">
<feFlood flood-opacity="0" result="BackgroundImageFix"/>
<feBlend mode="normal" in="SourceGraphic" in2="BackgroundImageFix" result="shape"/>
<feGaussianBlur stdDeviation="175" result="effect1_foregroundBlur_0_1"/>
</filter>
<filter id="filter3_f_0_1" x="-1463.52" y="-110.044" width="2219.98" height="2306.59" filterUnits="userSpaceOnUse" color-interpolation-filters="sRGB">
<feFlood flood-opacity="0" result="BackgroundImageFix"/>
<feBlend mode="normal" in="SourceGraphic" in2="BackgroundImageFix" result="shape"/>
<feGaussianBlur stdDeviation="175" result="effect1_foregroundBlur_0_1"/>
</filter>
<filter id="filter4_f_0_1" x="136.989" y="-609.907" width="1213.56" height="1221.05" filterUnits="userSpaceOnUse" color-interpolation-filters="sRGB">
<feFlood flood-opacity="0" result="BackgroundImageFix"/>
<feBlend mode="normal" in="SourceGraphic" in2="BackgroundImageFix" result="shape"/>
<feGaussianBlur stdDeviation="150" result="effect1_foregroundBlur_0_1"/>
</filter>
</defs>
</svg>

